<svg xmlns="http://www.w3.org/2000/svg" width="50" height="50" viewBox="-3 -3 22 22" id="icon"><path d="M15.76 2.34c-.017-.024-1.694-2.373-2.667-2.342-2.73.086-5.94 2.73-8.15 4.933C2.73 7.133.074 10.33-.013 13.06v.022c0 .957 2.328 2.638 2.35 2.653.634.44 1.33.28 1.613-.12.173-.245 1.958-2.918 2.16-3.245a.97.97 0 0 0 .13-.507c0-.244-.072-.515-.212-.78a77.645 77.645 0 0 0-.8-1.416C5.464 9.33 6.07 8.542 7.32 7.3c1.24-1.236 2.04-1.847 2.377-2.083.383.218 1.165.66 1.422.795.484.255.97.284 1.296.077a254.71 254.71 0 0 0 3.226-2.148c.24-.173.368-.48.368-.815 0-.265-.08-.544-.25-.788zm-.724.827c-.41.28-2.7 1.787-3.128 2.06a.74.74 0 0 1-.323-.1c-.174-.09-.682-.374-1.392-.776l-.55-.313-.522.363c-.387.27-1.228.918-2.51 2.193-1.286 1.28-1.932 2.116-2.203 2.5l-.365.518.316.552a74.3 74.3 0 0 1 .783 1.387c.09.167.097.282.097.313v.013c-.242.382-1.795 2.712-2.078 3.124-.04.006-.128 0-.237-.075-.88-.633-1.8-1.532-1.93-1.884.087-1.87 1.74-4.497 4.658-7.404 2.92-2.907 5.554-4.552 7.427-4.64.354.127 1.262 1.043 1.893 1.912a.39.39 0 0 1 .07.218c0 .017-.002.03-.004.04z"/></svg>