<svg xmlns="http://www.w3.org/2000/svg" width="50" height="50" viewBox="-3 -3 23 22" id="icon"><path d="M11.874 2.114C9.084 2.114 7.5 0 7.5 0S5.91 2.113 3.123 2.113C2.078 2.114.864 1.816-.5.998c0 0 .5 11.5 8 15 7.5-3.5 8-15 8-15-1.364.82-2.58 1.116-3.626 1.116zM7.5 14.882C4.03 13.035 2.27 9.185 1.382 6H13.62c-.887 3.183-2.646 7.032-6.12 8.882zM1.125 5C.92 4.12.776 3.32.683 2.67c.82.296 1.637.444 2.44.444 2.043 0 3.532-.953 4.375-1.687.844.733 2.333 1.687 4.375 1.687.805 0 1.62-.148 2.443-.444a27.22 27.22 0 0 1-.44 2.33H1.125z"/></svg>