<svg xmlns="http://www.w3.org/2000/svg" width="50" height="50" viewBox="0 0 60 60" id="icon"><path fill="" d="M54.58 20.53l-.06-.1c-.53-1.02-1.68-2.23-4.12-2.23-1.01 0-1.99.2-2.78.37-.18.04-.34.07-.46.09-.81.14-2.74.9-5.74 2.28-.03-.26-.07-.51-.11-.75-.2-1.04-.89-2.28-1.47-3.08-1.26-1.77-2.62-2.54-4.06-2.23-.79.17-2.1.89-3.91 2.14-.22-.05-.44-.08-.66-.08-1.01 0-1.72.5-1.97.71-4.59 3.72-10.4 7.81-14.12 9.97-1.81 1.05-3.66 1.89-5.45 2.71-.92.42-1.87.85-2.8 1.3-3.35 1.63-3.74 5.36-3.43 7.31l.09.59.36.46c1.08 1.37 3.74 3.17 14.89 4.91 1.23.2 2.55.29 3.92.29 5.67 0 11.27-1.67 13.47-2.73.18-.09.37-.17.59-.26.98.35 2.18.4 3.57.14 4.05-.78 7.47-.89 9.14-.89.82 0 1.3.02 1.34.03h.09l.22-.05.11-.1c.04-.03.08-.06.11-.09h3.28c.45 0 .81-.37.81-.82 0-.45-.36-.82-.81-.82h-3.31c-.21-.18-.44-.27-.55-.31l-.13-.02c-.08-.01-.7-.05-1.67-.06.24-.04.46-.09.67-.14 3.1-.66 5.63-2.33 5.91-2.51l.91-.62.07-1.12c.58-9.492-.94-12.382-1.94-14.29zm-3.733 20.33c-.003 0-.003.002-.005.004h-.015c-.004-.002-.012-.002-.018-.002-.012 0-.027 0-.044-.002h-.022a2.01 2.01 0 0 0-.093-.005h-.012l-.142-.005h-.03c-.045-.003-.095-.004-.15-.006h-.043c-.06-.002-.126-.004-.196-.004h-.026c-.08-.002-.166-.004-.258-.004H49.104c-.116 0-.238.002-.364.005l-.056.002-.33.007c-.035 0-.07 0-.105.002l-.365.012-.06.003c-.146.005-.298.012-.454.02l-.086.003-.388.02-.134.01c-.142.007-.287.017-.435.027-.024 0-.046.003-.07.004-.17.014-.347.026-.527.042l-.126.01-.43.037-.158.014c-.167.015-.335.033-.508.05l-.067.007c-.193.02-.39.043-.59.067-.05.006-.104.012-.157.02-.153.017-.31.037-.465.057l-.18.024c-.193.026-.39.052-.586.08l-.045.006c-.21.03-.426.064-.642.1l-.187.03c-.163.026-.328.053-.493.082-.065.012-.132.022-.197.035-.223.04-.448.08-.677.124a7.853 7.853 0 0 1-.65.1c-.13.015-.256.027-.38.038-.036.002-.073.004-.11.008a7.25 7.25 0 0 1-.41.013h-.032c-.057 0-.11-.004-.167-.007-.096-.003-.193-.005-.285-.013l-.18-.02a7.922 7.922 0 0 1-.24-.03c-.063-.01-.123-.024-.183-.036a4.313 4.313 0 0 1-.388-.095c-.034-.01-.07-.018-.104-.03l.006-.002a3.565 3.565 0 0 1-1.807-1.278h-.002c-.003-.002-.004-.005-.007-.01a4.153 4.153 0 0 1-.247-.376l-.02-.035a4.41 4.41 0 0 1-.183-.362 5.342 5.342 0 0 1-.32-.938c-.006-.025-.01-.05-.017-.074a7.44 7.44 0 0 1-.15-.946v-.013a8.548 8.548 0 0 1-.025-.455c0-.032 0-.064-.002-.096a10.49 10.49 0 0 1 .002-.435v-.026c.003-.082.008-.164.013-.246 0-.01 0-.02.002-.033.006-.092.013-.185.022-.278l.007-.072c.01-.092.02-.18.032-.27l.01-.082c.013-.086.025-.173.04-.257a8.403 8.403 0 0 1 .06-.332c.005-.037.014-.075.02-.11.016-.072.03-.144.047-.215a8.143 8.143 0 0 1 .08-.317c.013-.06.03-.115.046-.172l.04-.138c.03-.102.064-.2.097-.3 1.1-3.175 2.108-6.59 1.538-9.206a5.403 5.403 0 0 0-.462-1.32l-.022-.04a9.858 9.858 0 0 0-.125-.232c-.027-.05-.056-.098-.085-.148l-.048-.08a7.675 7.675 0 0 0-.25-.383h.003a5.226 5.226 0 0 0-.496-.61c-.03-.032-.06-.063-.09-.092l-.07-.068-.09-.083-.07-.06c-.03-.026-.06-.052-.09-.075l-.067-.052a2.65 2.65 0 0 0-.16-.114l-.072-.05a1.854 1.854 0 0 0-.084-.05l-.07-.04c-.028-.014-.055-.03-.082-.042l-.074-.037a1.757 1.757 0 0 0-.16-.068c-.02-.008-.044-.018-.065-.025a2.82 2.82 0 0 0-.14-.046l-.055-.015-.09-.023a.604.604 0 0 0-.06-.013c-.028-.007-.057-.013-.085-.018l-.052-.01-.094-.01-.04-.007a1.983 1.983 0 0 0-.13-.01h-.12c-.033 0-.064 0-.095.003h-.046a2.252 2.252 0 0 0-.126.013l-.048.007-.072.01c-.018.003-.034.005-.05.01-.022.004-.042.008-.062.01-.015.004-.03.008-.044.01-.02.006-.042.01-.062.017l-.03.008-.07.02-.01.004a2.263 2.263 0 0 0-.14.05l-.622-.89a3.7 3.7 0 0 1 .678-.15l.048-.008c.08-.012.16-.02.24-.027.033-.002.067-.006.1-.007.06-.003.123-.006.184-.007l.083-.003h.044l.15.007c.044.002.088.003.132.007l.15.014c.04.006.083.01.125.017.05.007.1.016.15.026.038.007.078.013.118.023.05.01.1.024.148.036l.11.028c.05.015.1.032.152.05l.097.03c.055.02.108.042.16.063l.08.03c.06.026.12.054.178.082l.055.025c.073.036.146.074.217.114l.006.003c1.044.59 1.79 1.54 2.197 2.32a4.188 4.188 0 0 1 .21.456l.015.042c.024.065.045.125.062.182.407 1.358 1.005 4.22-.93 9.463-.05.13-.095.263-.14.395l-.024.08c-.034.106-.07.213-.102.32l-.026.092c-.03.104-.06.206-.086.31l-.023.09c-.026.102-.053.206-.077.31l-.02.098c-.022.1-.045.2-.065.302-.005.034-.01.07-.018.105-.018.097-.035.195-.05.293-.007.037-.01.073-.017.11-.013.095-.028.19-.04.283l-.01.118c-.01.09-.02.182-.028.27-.008.094-.012.184-.017.275-.01.177-.014.35-.012.523v.017c.003.162.01.32.022.477a5.894 5.894 0 0 0 .15.983 4.365 4.365 0 0 0 .304.87 3.213 3.213 0 0 0 .467.72c.662.767 1.7 1.147 3.186.914a7.974 7.974 0 0 0 .573-.113c.174-.042.348-.083.523-.12l.168-.036c.122-.026.242-.05.362-.074l.19-.037c.12-.023.236-.044.355-.065a29.362 29.362 0 0 1 .607-.1 25.047 25.047 0 0 1 .616-.09c.052-.01.103-.015.153-.022.124-.016.246-.03.368-.047.064-.01.126-.015.19-.022.112-.014.223-.025.334-.038.062-.005.124-.013.184-.02.122-.01.242-.023.363-.034.047-.003.094-.008.14-.012.165-.015.327-.028.488-.04l.114-.008c.124-.01.246-.017.367-.025l.17-.01.303-.016.17-.01c.105-.004.207-.01.308-.012l.142-.006c.144-.006.286-.01.425-.014.018 0 .034 0 .052-.002l.358-.008.14-.002c.087 0 .173-.003.256-.004l.144-.002h.73c.085 0 .168.003.25.004h.003a17.043 17.043 0 0 1 .287.005l.173.004h.052l.177.006h.01l.177.006h.03c.04.003.08.004.116.005.014 0 .03 0 .043.002l.096.005h.02l.1.006h.006c.024 0 .046.003.065.004h.018l.03.003h.01l.012.002.013.006c.003 0 .005.002.01.004l.03.012c.005 0 .01.004.017.007.012.007.026.013.043.02a.18.18 0 0 0 .02.012c.238.128.674.448.122.93zm-2.032.215c-.057 0-.127.003-.187.004l.187-.005zm-6.82-2.91s-3.01.783-5.32 1.642c-.09-.096-.174-.2-.252-.31-.53-.775-.755-1.936-.675-3.272 1.377-.388 2.8-.83 4.026-1.21 1.29-.4 2.402-.746 3.014-.89 1.477-.348 6.213-1.188 6.267-1.197.03-.007 3.068-.712 5.36-1.988-.002 1.103-.042 2.343-.128 3.74 0 0-2.333 1.582-5.118 2.18-2.788.6-7.174 1.304-7.174 1.304zm7.013-5.467c-.048.008-4.79.85-6.274 1.2-.62.145-1.736.49-3.03.893-1.2.373-2.59.804-3.938 1.186.083-.958.316-1.997.702-3.043 2.107-5.706 1.225-8.646.936-9.61a4.134 4.134 0 0 0-.313-.734c.395.158.792.407 1.186.77l.116.106c2.468 2.273 3.49 3.214 6.104 3.503 2.437.27 5.312-2.428 6.693-3.725.144-.136.267-.25.365-.34.54-.487.815-1.04.82-1.64 0-.017-.003-.033-.003-.05.062.08.12.168.17.264.76 1.447 1.862 3.265 1.867 9.2-2.265 1.277-5.377 2.012-5.402 2.018zM34.956 22.493c.058-.02.118-.034.176-.05.186.256.37.555.55.904a.723.723 0 0 0 .455 1.274c.577 2.6-.463 6.016-1.528 9.093a9.987 9.987 0 0 0-.522 2.713c-.147.036-.296.077-.44.11-4.077.975-7.882 1.377-11.632 1.23-1.467-.06-3.2-.272-4.933-.554.055-.394.092-.77.107-1.127 0 0 1.304-1.788 2.307-2.78.34.21 1.175.637 1.175.637l-.01-.014c.127.118.293.19.48.19a.72.72 0 0 0 .716-.724.72.72 0 0 0-.546-.7c-.15-.117-.347-.27-.583-.457a5.4 5.4 0 0 1 .777-.5c.238-.124.48-.252.724-.383.298.205.56.4.753.562.014.39.327.7.714.7a.72.72 0 0 0 .717-.725.72.72 0 0 0-.365-.627 6.402 6.402 0 0 0-.54-.617c.46-.26.896-.518 1.293-.756.366.273.772.627 1.216 1.088l.034.037h.018c.13.137.313.223.516.223a.72.72 0 0 0 .65-1.026c-.004-.012-.01-.023-.018-.035l-.022-.03a10.442 10.442 0 0 0-1.014-1.098c.322-.2.517-.324.526-.33.042-.03.364-.25.838-.59.267.23.948.872.98.874a.71.71 0 0 0 .61.346.725.725 0 0 0 .522-1.22c.003-.022-.333-.544-.783-.984.28-.214.572-.44.867-.675.322.225.665.5 1.02.833.113.25.36.424.65.424a.72.72 0 0 0 .623-1.078c-.05-.106-.344-.67-1.024-1.24.267-.235.52-.468.755-.7.467.325.774.54 1.353 1.15.13.18.342.3.58.3a.72.72 0 0 0 .716-.725.715.715 0 0 0-.222-.52c-.01-.02-.245-.563-1.275-1.297.255-.21.542-.418.855-.604a6.3 6.3 0 0 1 1.18-.52zM10.81 37.786c-3.46-.61-4.715-2.02-4.74-2.055a.534.534 0 0 0-.07-.078c.192-.47.473-.93.88-1.323a.468.468 0 0 0 .016.142c.102.378.64.733 1.603 1.057.843.283 2.724.77 4.95 1.24-.035.62.108 1.118.443 1.516.862 1.027 2.878 1.178 5.012 1.336 2.974.222 6.342.473 7.485 3.078a30.956 30.956 0 0 1-3.693.233c-1.195 0-2.398-.08-3.576-.264-6.754-1.057-12.15-2.395-13.473-4.084 0 0-.11-.706.01-1.608.736.655 1.937 1.454 5.033 1.977a.584.584 0 0 0 .64-.524c.03-.32-.203-.59-.52-.645zm8.72-8.41c.1-.315.576-.363.663-.37 1.78.412 2.964 1.57 3.474 2.163.128.15.216.264.257.32-.056.238-.178.497-.446.497a.382.382 0 0 1-.093-.012 3.36 3.36 0 0 0-.36-.327c-.96-.768-3.066-2.018-3.496-2.27zm2.035 1.534l-.375.196c-.217.11-.454.26-.702.436-.018-.04-.04-.082-.062-.133-.185-.395-.477-1.013-.768-1.683.42.25 1.185.713 1.907 1.183zm1.6-.88l-.015-.06c-.005-.012-.19-.41-.434-.973l.026-.002c.188 0 .677.053 1.404.466-.31.185-.64.376-.98.57zm-.422-1.27c-.024 0-.045.002-.064.003l-.532-1.28c.095-.01.192-.015.288-.015.587 0 1.16.17 1.69.423.474.296.986.618 1.282.813a10.27 10.27 0 0 1 1.558 1.53c-.246.44-.674.525-.82.543a10.112 10.112 0 0 0-.274-.274c-1.615-1.563-2.716-1.74-3.13-1.74zm3.01-.273l-.033-.097-.633-1.46.083-.002c.277 0 .893.094 1.802.745-.392.28-.64.45-.648.457-.007.003-.22.14-.57.357zm-.582-1.794c-.074 0-.134.005-.18.012l-.154-.354-.292-.67c.258-.116.537-.174.83-.174.067 0 .136.01.204.015.266.07 1.655.38 2.242 1.026a10.78 10.78 0 0 1 1.608 1.543c-.08.59-.555.68-.836.68h-.053c-.042-.045-.08-.084-.122-.126-1.617-1.69-2.725-1.95-3.247-1.95zm3.177-.03a9.13 9.13 0 0 0-.5-.4c-.084-.18-.217-.462-.378-.793.28.042.872.178 1.638.604-.26.205-.516.4-.76.588zm-.992-1.445l-.064-.113c-.12-.24-.248-.494-.38-.745.593-.01 1.12.043 1.59.137 0 0 .24.054.492.12a5.29 5.29 0 0 1 1.39.623c.14.096.424.305.424.305.326.264.563.53.727.744.16.21.25.374.284.44-.082.34-.595.518-.753.534a9.832 9.832 0 0 0-.36-.335c-1.69-1.5-3.035-1.688-3.35-1.712zm3.232-.373l-.61-.953c.228.04.632.148 1.17.44-.176.17-.365.34-.56.513zm-.754-1.21l-.592-1.047a7.1 7.1 0 0 1 2.176.48l.81.388a6.233 6.233 0 0 1 1.492 1.174c.032.035.06.066.084.095.19.218.138.23.177.292.037.39-.528.598-.72.656-.172-.18-.15-.15-.277-.267l-.044-.04c-1.63-1.506-2.81-1.705-3.107-1.73zm-.795-1.293l-.052-.002-.692-1.084c.436-.337.866-.673 1.29-1.007.294.628.85 1.735 1.39 2.416a7.55 7.55 0 0 0-1.936-.324zm1.342 2.612a4.727 4.727 0 0 0-1.35-.57 5.625 5.625 0 0 0-.403-.1l-1.846-2.38c-.045-.437.66-.822 1.03-.975l2.57 4.024zm-3.54-2.592l1.442 1.858a7.88 7.88 0 0 0-1.496-.09c-.246-.46-.496-.89-.713-1.196.257-.19.513-.38.767-.572zm-.313 1.775l.554 1.072c.14.28.27.55.384.79-.566-.366-1.198-.652-1.835-.715l-.96-1.902c.246-.563.79-.63.944-.637.215.176.557.736.913 1.39zm-1.834-.19l.668 1.325c-.32.002-.623.07-.907.196l-.446-1.027c.23-.163.457-.328.686-.493zm-.45 1.62l.57 1.32.01.022.68 1.56a7.05 7.05 0 0 0-1.304-.81l-.437-.27-1.013-2.724c.146-.46.657-.556.853-.575l.64 1.477zm-.725 1.832a3.79 3.79 0 0 0-1.082-.167c-.14 0-.28.01-.42.028a11.995 11.995 0 0 1-.368-1.164c.364-.25.73-.504 1.1-.764l.77 2.067zm-.586 2.65l.002.003c-.552-.45-1.537-.91-1.77-1.016l-.896-2.82c.245-.395.8-.58 1.062-.65.05 1.154 1.542 4.36 1.602 4.482zm-2.652-3.025l.62 1.946a5.812 5.812 0 0 0-.67-.196l-.015-.003H20.2c-.03.002-.554.026-.798.35-.174-.42-.335-.838-.46-1.216.435-.282.88-.574 1.338-.88zm-1 2.41l.04.09c.332.784.683 1.532.897 1.984l.064.136-.153.142s-1.096-.926-1.473-1.263a2.202 2.202 0 0 1-.158-.155c-.498-.544-.892-2.12-.948-2.35.142-.51.75-.65.99-.687.13.57.426 1.35.743 2.102zm.882 2.35c0-.002-.002-.002-.003-.003l.002.002zm-2.245-1.916c-.35-.327-.616-.596-.816-.812l.42-.257c.1.334.236.724.397 1.07zm.62.865a65.307 65.307 0 0 0 2.915 2.357c-.15.478-.45.58-.684.58-.076 0-.132-.012-.14-.012-.06-.028-.122-.06-.182-.09-2.723-1.365-4.84-4.002-5.09-4.323.03-.458.824-.603 1.06-.635.147.204.7.905 2.122 2.123zm-2.926-.815c.616.707 1.796 1.956 3.284 2.99-.68.68-1.31 1.436-1.723 2.114-.098-1.202-.48-2.13-1.15-2.766-1.044-.997-2.478-1-3.152-.934.91-.434 1.826-.897 2.743-1.404zm.25 2.51c.69.656 1.056 1.654 1.1 2.975.005.215-.002.615-.002.615-.014.364-.05.75-.106 1.155a81.21 81.21 0 0 1-3.16-.593c.143-1.787-.173-3.07-.944-3.807a2.394 2.394 0 0 0-1.594-.655c.452-.206 1.286-.595 1.286-.595.02-.004 2.127-.33 3.42.904zm-3.27.518c.71.683 1.003 1.892.873 3.586-2.2-.465-4.055-.947-4.89-1.227-1.15-.387-1.402-.723-1.45-.89-.032-.103.036-.33.04-.337 0 0 .376-.276.677-.422 1.004-.488 2.91-1.353 2.91-1.353.01-.002 1.1-.068 1.84.643zm14.04 9.722c-1.184-2.765-4.657-3.053-7.71-3.28-2.084-.156-4.052-.303-4.85-1.255-.29-.343-.415-.775-.39-1.316 2.707.56 5.88 1.084 8.326 1.18.506.02 1.014.03 1.524.03 3.28 0 6.624-.417 10.17-1.265l.376-.094c-.035 1.364.23 2.73.948 3.754.014.02.03.038.043.057-1.442.667-4.617 1.712-8.436 2.19zm7.87-20.758l-.03.01-.07.03c-.475.184-.93.433-1.33.7-.007.004-.012.008-.018.01l-1.006-1.535c.147-.053.407-.13.735-.13.51 0 1.177.183 1.86.866-.046.016-.094.032-.14.05zm-1.65.866l-.08.07c0 .002-.002.004-.004.004l-.045.043a7.732 7.732 0 0 0-.422.333 6.608 6.608 0 0 0-.844-.397l-.028-.013c-.746-.7-1.68-2.764-1.825-3.09.208-.527.515-.64.74-.64.04 0 .074.005.098.01l.523.797.874 1.333 1.015 1.55zm-2.012-3.497a.867.867 0 0 1 .37-.084c.234 0 .522.102.822.444a4.962 4.962 0 0 0-.837.183l-.355-.542zm5.67 2.41c-.816-1.055-2.135-2.094-3.88-2.094h-.002c-.19 0-.38.016-.573.04.233-.17 3.26-2.355 4.197-2.557a.565.565 0 0 1 .116-.014c.986 0 2.538 2.45 2.74 3.533.194 1.047.237 2.582.242 2.79-.156-.142-.315-.29-.485-.446l-.116-.106c-.75-.69-1.507-1.034-2.238-1.147zm3.468 2.268l.105.09s6.198-2.956 7.45-3.168c.676-.114 1.816-.432 2.865-.432.403 0 .712.03.996.23a.74.74 0 0 1 .29.584c-.005.393-.202.768-.586 1.115-.102.092-.228.21-.377.35-1.205 1.13-4.026 3.775-6.142 3.54-1.984-.22-2.948-.834-4.6-2.31zm-.785 18.14c.03 0 .06 0 .09-.004l-.09.005zm9.9-1.026c.127 0 .268-.003.38-.003h.074c-.136 0-.297 0-.455.002zm1.94-1.217l-.007-.005.005.003v.002z"/></svg>