<svg width="166" height="94" viewBox="0 0 166 94" fill="none" xmlns="http://www.w3.org/2000/svg">
<path d="M142.101 35.8904C142.15 38.5925 142.188 42.422 142.192 46.0805C142.197 51.286 142.133 56.1013 142.133 56.5931C142.133 57.4348 142.017 57.732 142.643 57.6847C143.408 57.6285 146.518 57.6521 147.066 57.7349C147.472 57.7922 147.564 57.6285 147.472 57.1131C147.407 56.7536 147.363 56.4334 147.325 55.2187C147.284 54.0066 147.138 46.4987 147.138 43.4389C147.138 40.3748 147.128 35.8699 147.128 35.8699C148.741 35.8699 151.295 35.9965 152.147 37.6554C152.287 37.9428 152.47 37.9877 152.443 37.5473C152.413 37.0238 152.304 35.2315 152.169 34.4457C152.063 33.8207 151.917 33.7369 151.386 33.7369C150.86 33.7369 147.34 33.8556 144.75 33.8556C142.08 33.8556 138.432 33.7334 137.907 33.7334C137.373 33.7334 137.212 33.7616 137.122 34.3024C137.014 34.9253 136.884 37.0166 136.85 37.5444C136.824 37.9849 137.01 37.9382 137.148 37.6525C137.985 36.019 140.485 35.9126 142.1 35.8904H142.101Z" fill="#E41D2C"/>
<path d="M103.784 2.82308C103.473 3.08251 103.277 3.46646 103.15 3.98532C103.073 4.30067 103.05 4.66589 103.05 5.03312C103.05 5.41736 103.074 5.81112 103.159 6.16394C103.293 6.78369 103.552 7.66459 103.989 8.69539C93.887 5.42486 84.0782 4.68751 81.0145 4.68751C79.0079 4.68751 68.9133 4.88784 58.5302 8.58585C58.9332 7.61789 59.1714 6.79003 59.2974 6.20286C59.3749 5.85119 59.4094 5.46262 59.4094 5.08443C59.4094 4.70941 59.3749 4.3491 59.2974 4.02856C59.1887 3.51806 58.9817 3.13497 58.6717 2.86488C57.961 2.23879 57.0638 2.46507 56.5305 3.00266C55.4728 4.08938 53.8804 4.99709 51.8256 6.02904L50.784 6.54501L48.9379 7.468C47.8352 8.04393 46.9924 8.53656 46.2955 9.02025C46.2818 8.99546 46.2769 8.93925 46.2769 8.90639C46.2304 8.64379 46.1026 8.12666 45.7608 7.70668C45.439 7.33223 44.9973 7.11489 44.5352 7.11489C44.07 7.11489 43.6454 7.32704 43.3205 7.70668C42.88 8.23014 42.3157 8.76889 41.5725 9.38114L39.8429 10.7227L39.339 11.1037C37.7199 12.336 36.0094 13.6949 34.5476 15.5475C34.378 15.7536 34.219 16.0018 34.0637 16.2298C33.9782 15.8582 33.8924 15.5149 33.7354 15.2912C33.6082 15.0929 33.2236 14.6193 32.591 14.4602C31.8103 14.2679 31.0635 14.6429 30.7058 15.3881C30.5425 15.7193 30.0715 16.2548 29.5749 16.7783L29.2254 17.1375L27.3681 19.2037C25.2019 21.8228 23.9657 24.4516 23.4551 27.4783L23.4131 27.6847L23.2702 28.8714C23.2541 28.981 23.2498 29.1291 23.2498 29.2934C23.2498 29.6399 23.2857 30.0838 23.3526 30.5442H3.91104C0.919959 30.5442 0.599609 32.3011 0.599609 33.0543C0.610803 33.7444 0.944628 34.5722 1.45524 35.305C1.64956 38.2244 1.77094 41.181 1.80797 44.0886C1.81773 45.1243 1.82406 46.1975 1.82406 47.3171C1.82406 50.6014 1.77125 54.2738 1.66362 58.2442L1.64983 58.8374V58.9827C1.64983 60.0916 1.98913 60.9927 2.65273 61.6407C3.71672 62.6905 5.21727 62.6484 5.28213 62.6467H13.4956L13.7537 62.6545C15.0292 62.6905 18.4318 62.775 21.4393 64.3883L22.2452 64.8694C23.3463 65.5053 25.0007 67.0527 27.3086 69.2007L27.9042 69.7504L29.0554 70.7997C29.9125 71.5702 30.7055 72.1663 31.4814 72.7082C30.9466 72.8739 30.5325 73.0331 30.3413 73.1149C29.4972 73.4911 28.9717 74.0252 28.7601 74.67C28.6964 74.8747 28.6639 75.067 28.6639 75.2515C28.6639 76.0787 29.2408 76.8178 30.2377 77.1767C31.502 77.6457 32.7885 78.2579 34.1455 78.9137L35.5362 79.5744C37.426 80.4668 39.7586 81.4927 42.6931 82.3485C43.3059 82.5183 43.956 82.6717 44.6107 82.7904C44.446 82.9778 44.3352 83.128 44.2821 83.2078C44.0324 83.5402 43.8891 83.9273 43.8891 84.3087C43.8891 84.3917 43.9001 84.4836 43.9075 84.5684C44.0384 85.3242 44.671 85.7724 44.8814 85.916C45.5608 86.3974 46.4643 86.5438 46.8251 86.5844C48.1488 86.7361 48.7416 86.8548 49.27 87.0203L50.6821 87.4985L52.0957 87.9747C54.2048 88.657 56.9464 89.3087 61.1903 88.9775C61.9415 88.9245 63.1671 88.7132 64.4874 88.3728C64.455 88.429 64.4251 88.4728 64.3947 88.529C64.2951 88.7386 64.0569 89.271 64.0569 89.8939C64.0569 90.2392 64.1255 90.6111 64.3327 90.967C64.7429 91.7061 65.5517 92.1134 66.7385 92.2091C67.3 92.2604 72.2176 92.8554 72.9113 92.9522C74.0356 93.1177 75.919 93.38 77.2938 90.9218C78.2783 89.1444 79.5301 87.8072 80.3906 86.9546C80.3906 86.9546 81.1744 86.1866 81.2086 86.1532C81.3248 86.2645 82.1135 87.0482 82.1135 87.0482C83.059 88.0076 84.2614 89.3116 85.1552 90.9278C86.5303 93.3751 88.4117 93.1128 89.5426 92.952C90.2748 92.8459 95.3666 92.2319 95.6901 92.2132C97.1008 92.1273 97.7474 91.515 98.0462 91.0088C98.2641 90.6405 98.3433 90.228 98.3433 89.8299C98.3433 89.3422 98.2173 88.8801 98.0618 88.5397C98.023 88.4835 97.9885 88.4316 97.9529 88.3722C99.2844 88.7126 100.504 88.9239 101.261 88.977C105.497 89.3082 108.233 88.6564 110.345 87.9773C110.345 87.9741 111.766 87.4979 111.766 87.4979L113.178 87.0197C114.113 86.7355 114.824 86.6043 115.555 86.5839C116.205 86.5686 116.989 86.3138 117.556 85.9154C118.32 85.3939 118.479 84.769 118.483 84.3338V84.3289C118.483 83.7293 118.161 83.1888 117.788 82.7484C118.44 82.6175 119.105 82.533 119.756 82.3485C122.696 81.4927 125.02 80.4665 126.914 79.5744L128.307 78.908C129.654 78.2582 130.935 77.646 132.2 77.177C133.199 76.8149 133.774 76.0952 133.774 75.267C133.774 75.0762 133.746 74.8828 133.687 74.6827C133.334 73.5709 131.981 73.0244 130.956 72.7085C131.729 72.1746 132.527 71.5733 133.398 70.7999L135.756 68.5668L136.043 68.306L137.667 66.7739L137.594 66.8189L137.976 66.4989C138.804 65.7679 139.658 65.1574 140.567 64.6434C141.213 64.2874 141.903 63.9139 142.607 63.6688C144.334 63.0347 146.417 62.6787 148.816 62.6098L156.919 62.6037C158.713 62.6037 160.613 62.3524 160.613 59.3266C160.611 59.2393 160.316 53.4918 160.316 48.0841C160.316 48.0841 160.402 40.7262 160.425 39.3114C160.455 39.3255 160.484 39.3255 160.522 39.3422C161.029 39.5489 161.462 39.9173 161.878 40.2716C162.596 40.906 163.585 41.7506 164.894 40.9965C165.598 40.578 165.823 39.6314 165.823 38.329C165.823 37.3856 165.705 36.2455 165.553 34.9974L165.446 34.2021C165.327 33.3247 165.082 32.8156 164.996 32.6579C164.833 32.3014 163.881 30.5442 160.425 30.5442H139.099C139.167 30.0835 139.203 29.6321 139.203 29.2744C139.203 29.1012 139.192 28.953 139.192 28.8322C139.192 28.8354 139.042 27.6486 139.042 27.6486L139.004 27.433C138.496 24.4078 137.255 21.787 135.087 19.1564L133.198 17.0729L132.887 16.7293C132.269 16.0845 131.922 15.6533 131.728 15.3082C131.321 14.5712 130.603 14.2287 129.864 14.4083C129.38 14.5256 128.967 14.8346 128.705 15.2782C128.578 15.4829 128.481 15.8124 128.402 16.1903C128.237 15.9608 128.083 15.7187 127.909 15.5091C126.461 13.6709 124.749 12.304 123.119 11.0622L122.638 10.6985L120.889 9.33963C120.14 8.71787 119.575 8.18431 119.137 7.66401C118.809 7.2766 118.371 7.07223 117.917 7.07223C117.453 7.07829 117.012 7.29505 116.694 7.66401C116.343 8.09985 116.213 8.64956 116.175 8.86661C116.175 8.9012 116.169 8.95107 116.164 8.97903C115.464 8.489 114.622 7.99666 113.525 7.43111L111.679 6.5035L110.631 5.98638C108.572 4.95875 106.988 4.04384 105.923 2.9551C105.398 2.41751 104.497 2.19901 103.783 2.82222L103.784 2.82308Z" fill="#FEFEFE"/>
<path d="M45.9084 31.454C45.4494 31.5586 45.518 31.9581 45.9084 31.9798C48.8848 32.191 51.9752 31.9798 54.3873 31.2943C56.7731 30.618 57.0188 29.8916 55.904 27.3835C51.9086 29.5668 50.0518 30.4024 45.9084 31.454Z" fill="#8C734A"/>
<path d="M5.53698 34.7442C5.26632 34.4147 5.50138 34.2305 5.94627 34.3023C6.72382 34.4147 8.09089 34.4833 10.47 34.4862C11.7361 34.4943 12.9292 34.4395 15.1482 34.3818C19.1777 34.2677 22.436 35.9171 22.436 40.6932C22.436 45.6958 18.1235 48.4385 15.4591 48.4385C13.2418 48.4385 12.3928 48.284 12.3928 48.0921C12.3928 47.9102 12.5619 47.9102 12.9399 47.815C13.9278 47.5591 17.284 46.0016 17.284 41.357C17.284 36.7291 14.9398 35.8482 13.408 35.8482C12.0661 35.8482 11.7536 36.0889 11.7149 37.4884C11.6684 39.0735 11.5857 47.0921 11.5857 47.0921C11.5857 48.7945 11.5868 52.1149 11.6569 54.8905C11.7269 57.671 11.9789 59.353 12.1965 59.8528C12.3179 60.135 12.2513 60.329 11.8265 60.329H6.56219C6.2215 60.329 5.96034 60.3616 5.96034 59.6556C5.96034 58.9503 6.14977 52.2867 6.14977 46.6436C6.14977 40.9961 5.95403 35.2186 5.53698 34.7439V34.7442Z" fill="#8C734A"/>
<path d="M33.885 48.0227C37.2642 47.9535 40.746 45.1457 40.746 40.6397C40.746 35.8725 37.4556 34.2185 33.4708 34.3719C30.6422 34.4765 30.1147 34.4843 29.286 34.4843C26.902 34.4843 25.2427 34.386 24.3885 34.3079C23.9376 34.2672 23.7045 34.422 23.9795 34.7452C24.4008 35.2199 24.588 41.0049 24.588 46.6529C24.588 52.2868 24.4804 58.8184 24.177 59.6633C23.966 60.2896 24.4413 60.3317 24.7682 60.3317H29.7513C30.0391 60.3317 30.1821 60.2582 30.1821 59.6679C30.1677 59.0824 30.028 50.0512 30.028 47.0917C30.028 47.0917 30.092 39.0338 30.092 37.494C30.092 36.1149 30.4929 35.8495 31.8411 35.8495C33.381 35.8495 35.5985 36.6724 35.5985 41.3113C35.5985 45.9487 32.2286 47.345 30.8055 47.4589C30.4307 47.4915 30.1674 47.501 30.1674 47.6855C30.1674 47.9708 30.4941 47.9224 30.7496 48.2118C31.2079 48.7612 31.726 49.4392 33.0512 52.5817C34.4214 55.8477 34.9935 59.1574 37.7197 62.5717C40.4447 65.9844 44.9612 66.8434 48.2359 66.6419C48.6268 66.6139 48.8099 66.2297 48.5206 66.0956C47.3524 65.5658 46.1349 64.7801 44.2968 62.395C41.7851 59.1306 40.1909 54.9201 38.9142 52.804C37.4883 50.4066 35.6918 48.2726 33.885 48.023V48.0227Z" fill="#8C734A"/>
<path d="M50.348 60.3308H45.1862C44.8521 60.3308 44.5889 60.3622 44.5889 59.658C44.5889 58.9501 44.6715 52.2871 44.6715 46.6442C44.6715 40.9968 44.481 35.219 44.0587 34.7457C43.7887 34.4151 44.1865 34.2681 44.4637 34.3038C48.4522 34.8457 55.2954 34.2681 56.7386 34.2413C57.2053 34.2303 57.5566 34.277 57.6502 34.921C57.7727 35.7113 57.79 37.2604 57.8149 37.9289C57.8364 38.6054 57.5414 38.3803 57.412 38.0822C56.2366 36.2564 54.0233 36.1922 51.5986 36.3158C50.2923 36.3798 50.2458 36.406 50.2458 37.943C50.2458 39.0565 50.1744 43.1252 50.1368 45.5368C50.4513 45.2805 50.9998 45.0525 51.6514 45.0525C52.2205 45.0525 55.191 45.0871 55.7274 44.9041C56.1069 44.7654 56.275 44.8499 56.1691 45.0822C55.9033 45.7198 55.9917 47.3176 54.4567 47.2954C53.2159 47.277 51.3733 47.2954 51.0931 47.2954C50.4835 47.2954 50.1132 47.4689 50.1132 47.8953C50.1132 50.3878 50.0369 55.4175 50.3072 57.3068C50.4444 58.2911 50.7648 58.4658 52.0977 58.4315C53.5486 58.3958 56.9901 58.2127 58.0165 56.3544C58.1769 56.0073 58.4473 55.9044 58.4209 56.5388C58.4008 57.4212 58.1766 58.8172 57.9605 59.6776C57.8035 60.3184 57.5684 60.4308 57.0041 60.4072C55.8548 60.3746 51.3896 60.3305 50.3477 60.3305L50.348 60.3308Z" fill="#8C734A"/>
<path d="M94.059 48.3249C94.059 50.3505 94.2505 55.3747 94.3438 57.3383C94.4181 59.097 94.8053 58.9845 95.4402 58.9845C98.2579 58.9845 102.057 56.9388 102.057 47.4394C102.057 38.3427 98.2579 35.9315 95.7011 35.9315C94.4428 35.9315 94.2502 36.203 94.1474 39.208C94.0883 40.9151 94.059 46.2956 94.059 48.3249ZM88.2115 35.1209C87.9317 34.5994 87.8708 34.2037 88.5347 34.3305C89.4882 34.5253 92.2875 34.7585 95.9282 34.3988C100.539 33.946 108.015 35.7144 108.015 46.5144C108.015 56.2776 101.578 60.7103 96.7775 60.5477C93.6463 60.4526 91.9965 60.3964 89.5422 60.5477C88.8582 60.5979 88.5284 60.5979 88.5579 59.8265C88.6044 58.858 88.6839 51.8753 88.6839 48.2918C88.6839 44.7151 88.5172 35.7112 88.2113 35.1206L88.2115 35.1209Z" fill="#8C734A"/>
<path d="M126.822 35.1451C126.559 35.0685 126.481 34.675 126.857 34.6669C128.272 34.5969 130.588 34.464 131.795 34.402C132.818 34.347 133.45 34.9765 134.01 36.1869C134.557 37.3863 141.437 53.9079 141.437 53.9079C141.437 53.9079 141.218 36.7288 141.218 36.1044C141.218 35.4766 141.145 34.5874 142.034 34.5874C142.924 34.5874 144.003 34.5629 144.09 34.558C144.294 34.5343 144.325 34.8234 144.125 34.9347C143.894 35.0768 143.615 35.4155 143.615 35.9326V57.6583C143.615 58.2132 143.566 58.8595 143.579 59.389C143.579 59.8963 143.988 60.4633 143.153 60.4633H140.699C138.656 60.4633 137.79 59.4265 137.113 57.8924C136.453 56.3554 130.2 41.4994 130.2 41.4994V58.1192C130.2 58.6969 130.26 59.9462 130.659 60.0217C130.935 60.0811 130.955 60.4524 130.662 60.4524H128.321C128.147 60.4524 127.836 60.5481 127.836 60.0125C127.836 59.4781 128.147 36.7057 128.147 36.7057C127.666 35.7297 127.256 35.2921 126.822 35.1457L126.822 35.1451Z" fill="#8C734A"/>
<path d="M151.913 36.6357C151.971 39.5911 152.013 43.7895 152.016 47.7971C152.016 53.4965 151.949 58.7707 151.949 59.3146C151.949 60.2327 151.82 60.5639 152.517 60.514C153.371 60.4483 156.817 60.4719 157.436 60.5639C157.887 60.6328 157.986 60.4526 157.887 59.8799C157.812 59.4924 157.769 59.1379 157.725 57.809C157.677 56.4782 157.517 48.2595 157.517 44.9034C157.517 41.5533 157.507 36.6114 157.507 36.6114C159.298 36.6114 162.141 36.7536 163.072 38.5808C163.227 38.8872 163.444 38.9342 163.409 38.4545C163.367 37.8752 163.257 36.0606 163.101 35.1981C162.991 34.5219 162.825 34.4236 162.235 34.4236C161.647 34.4236 156.386 34.6467 154.672 34.6467H154.64H154.618C152.91 34.6467 147.84 34.4155 147.256 34.4155C146.665 34.4155 146.481 34.4501 146.386 35.0419C146.262 35.7291 146.119 37.8734 146.086 38.4496C146.053 38.929 146.262 38.8823 146.415 38.5698C147.344 36.7752 150.127 36.6564 151.914 36.6362L151.913 36.6357Z" fill="#8C734A"/>
<path d="M78.0287 35.8197C77.988 35.0714 77.8901 35.042 77.7317 34.7736C77.5124 34.4407 77.7567 34.2717 78.0847 34.2942C78.7891 34.3406 81.903 34.5032 82.7457 34.4499C83.5795 34.3986 83.7612 34.3876 83.7612 35.1705C83.7612 35.9684 83.609 41.402 83.5467 44.3978C83.4908 47.3965 83.6369 56.2427 83.7224 57.377C83.8171 58.5234 83.8777 59.4775 84.0646 59.8523C84.2388 60.2316 84.3989 60.6083 83.9095 60.5144C83.4222 60.4083 79.1923 60.3394 78.5451 60.4192C78.2776 60.4521 78.1582 60.2754 78.1814 60.0004C78.217 59.7286 78.3149 48.3521 78.3149 46.4294C78.3149 44.8662 78.2139 38.3488 78.0287 35.8197Z" fill="#8C734A"/>
<path d="M60.5406 55.5377C60.573 55.1578 60.7269 55.0096 60.9232 55.3581C62.2091 57.6166 64.0007 58.7362 66.172 58.7362C68.7084 58.7362 70.3149 57.6382 70.3149 55.4521C70.3149 49.6994 61.0922 47.0974 61.0922 40.8451C61.0922 35.8615 65.0788 33.9634 68.6293 33.9634C69.982 33.9634 71.6447 34.062 73.0862 34.4148C73.4515 34.5099 73.7474 34.6742 73.814 35.1706C73.9168 35.9411 73.9168 37.7464 73.9168 38.2442C73.9168 38.7395 73.7366 38.6412 73.4206 38.2442C72.2713 36.7966 70.5684 35.8592 68.7441 35.8592C67.0719 35.8592 65.9556 36.6075 65.9556 38.1382C65.9556 42.9921 75.184 44.9934 75.184 52.7728C75.184 58.4814 70.7113 60.8275 66.887 60.8275C65.0004 60.8275 63.3396 60.6136 62.0753 60.2325C60.9384 59.9002 60.8313 59.7154 60.6801 58.3741C60.5587 57.2433 60.5199 55.9295 60.5403 55.5377H60.5406Z" fill="#8C734A"/>
<path d="M116.695 60.3308H111.53C111.2 60.3308 110.947 60.3622 110.947 59.658C110.947 58.9501 111.02 52.2871 111.02 46.6442C111.02 40.9968 110.832 35.219 110.413 34.7457C110.14 34.4151 110.539 34.2681 110.822 34.3038C114.812 34.8457 121.653 34.2681 123.088 34.2413C123.561 34.2303 123.908 34.277 124.007 34.921C124.124 35.7113 124.141 37.2604 124.163 37.9289C124.186 38.6054 123.885 38.3803 123.749 38.0822C122.589 36.2564 120.357 36.1922 117.953 36.3158C116.636 36.3798 116.587 36.406 116.587 37.943C116.587 39.0565 116.524 43.1252 116.489 45.5368C116.801 45.2805 117.347 45.0525 117.996 45.0525C118.575 45.0525 121.543 45.0871 122.08 44.9041C122.454 44.7654 122.624 44.8499 122.526 45.0822C122.239 45.7198 122.332 47.3176 120.806 47.2954C119.57 47.277 117.73 47.2954 117.43 47.2954C116.833 47.2954 116.458 47.4689 116.458 47.8953C116.458 50.3878 116.394 55.4175 116.655 57.3068C116.787 58.2911 117.107 58.4658 118.439 58.4315C119.904 58.3958 123.332 58.2127 124.368 56.3544C124.525 56.0073 124.783 55.9044 124.767 56.5388C124.76 57.4212 124.528 58.8172 124.305 59.6776C124.145 60.3184 123.92 60.4308 123.361 60.4072C122.202 60.3746 117.735 60.3305 116.694 60.3305L116.695 60.3308Z" fill="#8C734A"/>
<path d="M45.0323 30.712C44.5811 30.8256 44.6545 31.213 45.0495 31.241C48.0118 31.4427 51.1129 31.241 53.5284 30.5587C55.9033 29.8839 56.1504 29.1468 55.0339 26.6338C51.0403 28.8251 49.1818 29.6622 45.0325 30.712H45.0323Z" fill="#D42E12"/>
<path d="M4.27788 33.5569C3.99976 33.2275 4.23598 33.0418 4.68201 33.1107C5.46128 33.2275 6.82354 33.2914 9.21071 33.3021C10.4687 33.3053 11.6679 33.2459 13.8768 33.1833C17.9078 33.079 21.1644 34.7313 21.1644 39.4998C21.1644 44.5074 16.8611 47.2421 14.1834 47.2421C11.9684 47.2421 11.1177 47.0919 11.1177 46.9016C11.1177 46.7267 11.2902 46.7267 11.6682 46.6278C12.6636 46.3733 16.0241 44.8129 16.0241 40.1744C16.0241 35.5387 13.6805 34.6627 12.1392 34.6627C10.7974 34.6627 10.4891 34.8996 10.4567 36.2899C10.4085 37.8799 10.3181 45.8985 10.3181 45.8985C10.3181 47.6087 10.3335 50.9199 10.3912 53.6969C10.4567 56.4751 10.7021 58.1611 10.934 58.6632C11.0614 58.9492 10.979 59.1368 10.5514 59.1368H5.29166C4.96072 59.1368 4.70242 59.1729 4.70242 58.4638C4.70242 57.7564 4.88237 51.0992 4.88237 45.4549C4.88237 39.8089 4.69178 34.0268 4.2776 33.5563L4.27788 33.5569Z" fill="#D42E12"/>
<path d="M32.6193 46.8326C36.0093 46.7686 39.4745 43.9541 39.4745 39.4481C39.4745 34.6755 36.1841 33.0319 32.2102 33.1771C29.3782 33.2743 28.8541 33.2821 28.0223 33.2821C25.6426 33.2821 23.9773 33.1838 23.1262 33.1146C22.6722 33.0788 22.4437 33.227 22.7158 33.5582C23.1294 34.0312 23.3209 39.8165 23.3209 45.455C23.3209 51.0999 23.2058 57.63 22.9121 58.47C22.6954 59.0903 23.1701 59.1479 23.5088 59.1479H28.4792C28.7714 59.1479 28.921 59.0701 28.9089 58.4809C28.9069 57.894 28.7623 48.863 28.7623 45.9015C28.7623 45.9015 28.8263 37.8405 28.8263 36.2978C28.8263 34.9196 29.2243 34.6654 30.5785 34.6654C32.1155 34.6654 34.3362 35.482 34.3362 40.1209C34.3362 44.7474 30.966 46.1486 29.5367 46.2653C29.1541 46.2979 28.8943 46.3172 28.8943 46.4997C28.8943 46.7793 29.2315 46.7308 29.4838 47.0231C29.9459 47.5711 30.4635 48.2476 31.7803 51.3913C33.1572 54.6607 33.7263 57.9687 36.4556 61.3813C39.1864 64.7957 43.6952 65.6466 46.9719 65.4543C47.3668 65.4218 47.5393 65.0358 47.2549 64.9018C46.0884 64.3737 44.8649 63.5896 43.0388 61.2064C40.5116 57.9419 38.9252 53.725 37.6516 51.6121C36.2162 49.2115 34.4264 47.0782 32.619 46.8326H32.6193Z" fill="#D42E12"/>
<path d="M49.0785 59.1372H43.9201C43.5794 59.1372 43.3256 59.1729 43.3256 58.4641C43.3256 57.7562 43.4083 51.0995 43.4083 45.4552C43.4083 39.8092 43.214 34.0271 42.8001 33.5567C42.5217 33.2255 42.9152 33.079 43.2063 33.1099C47.1905 33.6518 54.0366 33.0678 55.4748 33.0462C55.9381 33.0416 56.2946 33.0883 56.3939 33.7397C56.5061 34.5206 56.5294 36.059 56.5509 36.735C56.573 37.4129 56.2742 37.1898 56.1312 36.8912C54.9771 35.0668 52.7455 34.9968 50.3394 35.1199C49.0222 35.1951 48.968 35.2124 48.968 36.7505C48.968 37.8646 48.912 41.9405 48.8733 44.3584C49.1841 44.0791 49.7378 43.8543 50.3862 43.8543C50.9651 43.8543 53.9258 43.901 54.4611 43.7104C54.8374 43.5744 54.9995 43.6588 54.9123 43.8943C54.6258 44.5334 54.7208 46.1248 53.1938 46.1046C51.9479 46.092 50.1144 46.1046 49.8253 46.1046C49.2189 46.1046 48.8362 46.2811 48.8362 46.7057C48.8362 49.2002 48.7803 54.2233 49.0449 56.1117C49.1816 57.094 49.5004 57.2765 50.8253 57.2344C52.2892 57.1955 55.7214 57.022 56.7587 55.1665C56.9108 54.8105 57.1864 54.7133 57.1568 55.3429C57.1413 56.2333 56.9157 57.6187 56.695 58.4854C56.538 59.1256 56.304 59.2309 55.7443 59.2084C54.5951 59.1836 50.1261 59.1369 49.0791 59.1369L49.0785 59.1372Z" fill="#D42E12"/>
<path d="M92.7864 47.1278C92.7864 49.1562 92.9899 54.175 93.0775 56.155C93.1487 57.9062 93.5422 57.7917 94.1782 57.7917C96.9822 57.7917 100.785 55.746 100.785 46.248C100.785 37.1594 96.9822 34.7447 94.4363 34.7447C93.1733 34.7447 92.9897 35.0122 92.8763 38.0123C92.8189 39.7257 92.7861 45.1037 92.7861 47.1278H92.7864ZM86.9354 33.9269C86.6602 33.4176 86.5982 33.0129 87.273 33.1411C88.225 33.3317 91.0256 33.5753 94.6696 33.2103C99.262 32.7555 106.753 34.5202 106.753 45.3271C106.753 55.0824 100.323 59.5135 95.5092 59.365C92.3789 59.2538 90.721 59.2071 88.2713 59.365C87.5867 59.4057 87.2618 59.4057 87.2974 58.6294C87.3427 57.6655 87.4188 50.686 87.4188 47.0981C87.4188 43.5258 87.2555 34.5202 86.9352 33.9269H86.9354Z" fill="#D42E12"/>
<path d="M125.557 33.953C125.289 33.8731 125.211 33.4909 125.589 33.4672C127.012 33.4047 129.32 33.2738 130.53 33.2095C131.549 33.1597 132.191 33.7872 132.738 34.9904C133.289 36.1976 140.166 52.7114 140.166 52.7114C140.166 52.7114 139.951 35.5274 139.951 34.912C139.951 34.2954 139.883 33.4004 140.763 33.4004C141.654 33.4004 142.745 33.3767 142.827 33.369C143.028 33.3442 143.067 33.6252 142.854 33.7468C142.624 33.889 142.339 34.2184 142.339 34.7448V56.461C142.339 57.0202 142.305 57.6716 142.319 58.204C142.319 58.6943 142.722 59.2709 141.892 59.2709H139.441C137.392 59.2709 136.528 58.2305 135.854 56.6982C135.179 55.1678 128.936 40.3162 128.936 40.3162C128.936 40.3162 128.939 56.341 128.939 56.9233C128.939 57.5108 128.988 58.7491 129.397 58.8367C129.672 58.8915 129.691 59.2536 129.398 59.2536H127.058C126.866 59.2536 126.574 59.3536 126.574 58.8212C126.574 58.2856 126.872 35.5179 126.872 35.5179C126.4 34.5384 125.994 34.0997 125.557 33.9527L125.557 33.953Z" fill="#D42E12"/>
<path d="M150.654 35.4385C150.718 38.4093 150.743 42.6011 150.76 46.6043C150.761 52.3098 150.685 57.5842 150.685 58.1186C150.685 59.0416 150.558 59.3679 151.245 59.3227C152.107 59.2544 155.561 59.2838 156.177 59.3711C156.622 59.4368 156.722 59.2544 156.622 58.6888C156.559 58.3014 156.505 57.9437 156.452 56.616C156.406 55.29 156.256 47.0684 156.256 43.7184C156.256 40.3619 156.247 35.4244 156.247 35.4244C158.024 35.4244 160.866 35.5559 161.816 37.3831C161.965 37.6959 162.178 37.7391 162.15 37.2643C162.105 36.685 161.991 34.7202 161.836 33.8592C161.724 33.1786 161.562 33.0893 160.97 33.0893C160.385 33.0893 156.472 33.2098 153.592 33.2098C150.624 33.2109 146.576 33.0818 145.987 33.0818C145.404 33.0818 145.221 33.1115 145.121 33.7096C144.994 34.3887 144.855 36.6832 144.816 37.2612C144.787 37.7388 144.993 37.6843 145.149 37.3796C146.084 35.5948 148.856 35.4682 150.654 35.4383L150.654 35.4385Z" fill="#D42E12"/>
<path d="M76.7738 34.6254C76.7178 33.8803 76.6432 33.8414 76.4598 33.5822C76.2511 33.2415 76.4859 33.081 76.8185 33.0951C77.5232 33.1527 80.6458 33.3202 81.4701 33.2591C82.3085 33.2092 82.4997 33.1845 82.4997 33.9809C82.4997 34.7724 82.3476 40.2158 82.2824 43.2093C82.2307 46.2026 82.3739 55.0474 82.4514 56.1854C82.5556 57.3225 82.6102 58.285 82.7953 58.6644C82.977 59.0423 83.1282 59.4202 82.638 59.3233C82.1575 59.2092 77.9213 59.1515 77.2928 59.2279C77.0115 59.2541 76.8903 59.0812 76.9259 58.8105C76.9492 58.5283 77.0473 47.1653 77.0473 45.2401C77.0473 43.6731 76.9492 37.1589 76.7735 34.6254H76.7738Z" fill="#D42E12"/>
<path d="M59.278 54.3444C59.3073 53.9539 59.4612 53.8167 59.6526 54.1663C60.9374 56.4228 62.7321 57.5461 64.9063 57.5461C67.4473 57.5461 69.0432 56.4493 69.0432 54.2502C69.0432 48.5116 59.8251 45.9148 59.8251 39.6452C59.8251 34.6694 63.805 32.7744 67.3649 32.7744C68.7208 32.7744 70.3836 32.8623 71.8285 33.2261C72.1829 33.3233 72.4863 33.4867 72.5472 33.9805C72.6431 34.7441 72.6431 36.5575 72.6431 37.0524C72.6431 37.5522 72.4688 37.441 72.1551 37.0524C70.9981 35.6016 69.3089 34.6662 67.4832 34.6662C65.8021 34.6662 64.6997 35.4142 64.6997 36.9541C64.6997 41.7991 73.9157 43.7949 73.9157 51.5859C73.9157 57.2895 69.4398 59.6342 65.6216 59.6342C63.743 59.6342 62.0648 59.4232 60.8113 59.0424C59.6825 58.6951 59.5654 58.5221 59.4167 57.1788C59.2915 56.0572 59.2548 54.7373 59.278 54.3439V54.3444Z" fill="#D42E12"/>
<path d="M115.428 59.1372H110.262C109.937 59.1372 109.677 59.1729 109.677 58.4641C109.677 57.7562 109.76 51.0995 109.76 45.4552C109.76 39.8092 109.566 34.0271 109.138 33.5567C108.879 33.2255 109.27 33.079 109.551 33.1099C113.545 33.6518 120.385 33.0678 121.83 33.0462C122.292 33.0416 122.64 33.0883 122.731 33.7397C122.855 34.5206 122.878 36.059 122.904 36.735C122.919 37.4129 122.626 37.1898 122.489 36.8912C121.327 35.0668 119.091 34.9968 116.691 35.1199C115.36 35.1951 115.327 35.2124 115.327 36.7505C115.327 37.8646 115.261 41.9405 115.218 44.3584C115.536 44.0791 116.087 43.8543 116.733 43.8543C117.3 43.8543 120.274 43.901 120.811 43.7104C121.189 43.5744 121.358 43.6588 121.257 43.8943C120.981 44.5334 121.077 46.1248 119.539 46.1046C118.302 46.092 116.463 46.1046 116.172 46.1046C115.574 46.1046 115.186 46.2811 115.186 46.7057C115.186 49.2002 115.125 54.2233 115.389 56.1117C115.525 57.094 115.844 57.2765 117.175 57.2344C118.637 57.1955 122.066 57.022 123.108 55.1665C123.259 54.8105 123.524 54.7133 123.515 55.3429C123.488 56.2333 123.265 57.6187 123.047 58.4854C122.882 59.1256 122.654 59.2309 122.091 59.2084C120.935 59.1836 116.472 59.1369 115.428 59.1369V59.1372Z" fill="#D42E12"/>
<path d="M126.046 73.3957C127.433 73.2282 128.637 72.6851 129.682 72.0149C133.657 69.5051 136.781 64.9945 139.999 63.5141C140.668 63.2076 139.808 62.3377 138.285 62.1313C136.18 61.85 127.618 61.5237 118.511 70.9997C120.08 68.83 119.668 67.1463 119.537 66.8578C119.439 66.6422 118.746 66.0363 118.251 66.5577C117.683 67.1495 116.853 67.9589 115.793 68.5288C111.04 70.9902 102.738 72.4084 100.379 80.7972C95.5183 80.7819 91.0956 82.8072 93.4831 85.0299C95.0519 86.4859 99.4738 87.5429 101.358 87.6867C109.229 88.299 111.657 85.3643 115.523 85.2908C116.308 85.2738 117.478 84.7382 117.06 83.9492C116.853 83.5607 116.033 82.1018 112.517 81.6657C111.892 81.6063 114.859 82.4013 119.386 81.1033C124.931 79.4807 128.281 77.2459 131.742 75.9649C133.038 75.4933 132.319 74.5951 131.652 74.3455C131.199 74.1639 129.72 73.3458 126.045 73.3957H126.046Z" fill="#FFE898"/>
<path d="M121.398 73.4528C121.141 73.509 122.888 71.655 124.607 70.4276C128.703 67.4926 132.042 66.1883 132.193 66.1277C132.664 65.9479 132.846 65.5901 132.23 65.7372C131.698 65.8651 128.307 67.1239 124.801 69.4637C123.089 70.6133 121.372 72.211 120.089 73.6869C117.316 74.2839 115.732 75.349 115.947 75.1083C125.495 64.0048 135.512 62.6416 138.05 63.0694C138.306 63.1181 138.386 63.2504 138.379 63.3101C138.364 63.3784 138.377 63.5046 137.961 63.7001C134.661 65.3183 130.26 71.9767 123.11 73.1603C122.557 73.1729 121.573 73.4211 121.399 73.4525L121.398 73.4528Z" fill="#8C734A"/>
<path d="M111.191 79.9094C113.475 79.7969 114.976 79.5392 116.538 79.2098C119.306 78.6269 121.485 77.8616 122.707 77.365C123.011 77.2462 123.239 77.1447 123.377 77.0559C123.907 76.7541 123.581 76.5653 123.208 76.6979C123.109 76.7276 122.956 76.7951 122.878 76.8184C122.533 76.9461 120.995 77.5414 117.455 78.3663C115.521 78.8224 114.004 78.9501 112.91 79.0218C112.307 79.0544 111.523 79.0674 112.224 78.5955C115.496 76.4059 116.489 75.9029 118.91 75.0877C124.272 73.279 130.469 74.8753 131.059 75.2143C129.682 75.5579 125.034 78.1147 120.854 79.5237C116.575 80.9652 111.69 80.8635 110.906 80.8272C109.342 80.7678 110.007 79.9685 111.191 79.9091V79.9094Z" fill="#8C734A"/>
<path d="M104.215 79.8306C110.125 76.4912 114.133 73.0252 114.943 72.232C115.523 71.6543 115.291 71.5851 115.103 71.7045C114.99 71.7713 114.882 71.8477 114.795 71.9215C109.1 76.4399 104.245 78.9682 102.043 80.1275C100.71 80.8381 101.644 79.5357 101.942 79.1463C103.613 76.9072 105.54 75.02 107.472 73.7378C111.968 70.7515 114.369 70.7374 116.484 69.4423C116.973 69.1301 117.566 68.7317 118.008 68.4394C118.349 68.2103 118.667 68.4414 118.432 69.0067C118.338 69.2223 116.094 74.651 111.059 77.8956C106.847 80.613 104.554 80.2601 103.988 80.3227C103.402 80.4057 103.875 80.0226 104.215 79.8306H104.215Z" fill="#8C734A"/>
<path d="M97.8806 84.8404C99.2181 84.8482 100.615 84.7703 102.092 84.7141C105.884 84.5905 108.361 84.2094 109.342 84.0408C110.491 83.8393 110.211 83.6986 109.355 83.7658C108.828 83.8145 104.958 84.1143 102.146 84.1563C100.96 84.1768 100.859 84.1889 99.1217 84.1595C99.6828 83.649 102.484 81.9227 104.638 81.7978C109.551 81.0464 114.003 82.9866 115.68 83.9283C116.512 84.3999 116.025 84.5109 115.697 84.5265C109.711 84.6968 108.816 87.0158 101.781 86.6146C100.179 86.5206 96.5402 85.8086 96.0313 85.167C95.8947 84.9952 97.2153 84.8061 97.8809 84.8404H97.8806Z" fill="#8C734A"/>
<path d="M81.6967 83.7512C84.1105 81.5161 85.1168 79.481 90.5476 78.4113C94.9549 77.529 96.8705 78.9299 103.723 77.8553C106.859 77.365 105.896 78.8051 105.006 79.9858C104.702 80.3873 100.823 82.9905 99.8133 83.4342C97.8397 84.3214 95.2376 85.2853 91.5396 85.5523C91.3542 85.5534 91.1506 85.5675 90.9377 85.5675C93.5209 86.5438 95.3108 87.6153 96.0387 88.1869C96.1741 88.2835 96.3203 88.3991 96.4325 88.5118C96.5381 88.6083 96.7387 88.8038 96.8705 89.0883C97.1475 89.7221 97.2887 90.8169 95.6061 90.9172C95.2548 90.942 90.0683 91.5589 89.3527 91.6667C88.2253 91.82 87.2095 91.9071 86.3077 90.2923C84.3838 86.8497 81.2202 84.7131 81.2202 84.1087C81.2202 84.1087 81.4553 83.9836 81.6964 83.751L81.6967 83.7512Z" fill="#FFE898"/>
<path d="M84.2435 82.5518C84.4938 82.4405 85.92 80.4354 90.9389 79.4949C95.4147 78.656 99.427 79.8898 103.875 78.797C104.087 78.7437 104.44 78.8091 104.115 79.2559C103.846 79.6104 103.499 80.001 103.13 80.2896C101.945 81.2054 98.4181 83.9977 91.4595 84.4943C90.2204 84.5834 88.1645 84.5332 85.8565 84.0415C85.0167 83.8573 85.1565 83.6509 85.7802 83.5979C86.3542 83.5405 91.9558 83.2398 98.2169 81.2054C98.9015 80.9845 98.8687 80.5072 98.1299 80.7586C96.9899 81.1491 89.124 82.9392 84.519 83.1888C84.1536 83.2125 83.6915 82.9986 84.2431 82.5518H84.2435Z" fill="#8C734A"/>
<path d="M83.2214 85.1723C84.9815 86.4063 86.4344 88.5627 87.1606 89.725C87.8557 90.8249 88.3408 90.7823 89.2834 90.6433C89.9694 90.5482 90.8204 90.4577 91.0738 90.3969C92.1375 90.1501 90.7891 89.394 90.61 89.2629C89.0626 88.1387 87.6385 87.2388 86.8434 86.8185C85.9895 86.3729 86.3305 86.3371 86.7894 86.5153C88.3879 87.1324 90.7891 88.5913 91.4254 89.0692C92.1318 89.5831 92.8717 90.0766 93.4845 90.0645C93.9636 90.0576 95.2589 89.9126 95.6074 89.8942C96.3898 89.8457 95.9667 89.4626 95.5106 89.102C94.2512 88.1387 90.0988 85.396 83.2478 84.7353C83.0596 84.7131 82.9152 84.957 83.2217 85.1726L83.2214 85.1723Z" fill="#8C734A"/>
<path d="M36.4029 73.3957C35.0111 73.2282 33.8122 72.6851 32.7637 72.0149C28.7856 69.5051 25.6578 64.9945 22.4466 63.5141C21.7761 63.2076 22.6409 62.3377 24.157 62.1313C26.264 61.85 34.8292 61.5237 43.9238 70.9997C42.3589 68.83 42.7714 67.1463 42.9019 66.8578C43.003 66.6422 43.689 66.0363 44.1864 66.5577C44.7621 67.1495 45.5879 67.9589 46.6597 68.5288C51.4027 70.9902 59.7015 72.4084 62.0605 80.7972C66.9302 80.7819 71.35 82.8072 68.964 85.0299C67.3914 86.4859 62.9592 87.5429 61.0823 87.6867C53.2101 88.299 50.7837 85.3643 46.9209 85.2908C46.1336 85.2738 44.9037 84.6647 45.4014 83.9726C45.7438 83.5117 46.4978 82.3278 49.9237 81.6654C50.5463 81.606 47.5801 82.401 43.0578 81.103C37.5105 79.4804 34.1607 77.2456 30.6974 75.9646C29.405 75.493 30.1156 74.5948 30.789 74.3452C31.2491 74.1636 32.7298 73.3455 36.4032 73.3954L36.4029 73.3957Z" fill="#FFE898"/>
<path d="M41.0408 73.4528C41.3035 73.509 39.5555 71.655 37.8374 70.4276C33.7378 67.4926 30.3971 66.1883 30.2525 66.1277C29.7872 65.9479 29.6053 65.5901 30.2181 65.7372C30.7422 65.8651 34.1342 67.1239 37.6459 69.4637C39.3488 70.6133 41.0612 72.211 42.3393 73.6869C45.1295 74.2839 46.7033 75.349 46.4963 75.1083C36.9473 64.0048 26.9396 62.6416 24.3998 63.0694C24.1231 63.1181 24.0547 63.2504 24.0731 63.3101C24.0731 63.3784 24.0732 63.5046 24.4776 63.7001C27.7824 65.3183 32.1839 71.9767 39.3314 73.1603C39.887 73.1729 40.8709 73.4211 41.0406 73.4525L41.0408 73.4528Z" fill="#8C734A"/>
<path d="M51.2593 79.9094C48.962 79.7969 47.4724 79.5392 45.9093 79.2098C43.138 78.6269 40.9575 77.8616 39.7351 77.365C39.4317 77.2462 39.2127 77.1447 39.0695 77.0559C38.531 76.7541 38.8516 76.5653 39.2406 76.6979C39.3321 76.7276 39.4897 76.7951 39.5623 76.8184C39.9113 76.9461 41.4475 77.5414 44.987 78.3663C46.9233 78.8224 48.4379 78.9501 49.528 79.0218C50.1253 79.0544 50.9307 79.0674 50.2111 78.5955C46.9497 76.4059 45.956 75.9029 43.5404 75.0877C38.1688 73.279 31.9837 74.8753 31.3901 75.2143C32.7587 75.5579 37.4211 78.1147 41.597 79.5237C45.8722 80.9652 50.7536 80.8635 51.5283 80.8272C53.0957 80.7678 52.4272 79.9685 51.2593 79.9091V79.9094Z" fill="#8C734A"/>
<path d="M58.2273 79.8306C52.3269 76.4912 48.3051 73.0252 47.5011 72.232C46.9159 71.6543 47.1541 71.5851 47.3373 71.7045C47.4541 71.7713 47.5614 71.8477 47.6504 71.9215C53.339 76.4399 58.1989 78.9682 60.4058 80.1275C61.723 80.8381 60.7961 79.5357 60.5054 79.1463C58.8317 76.9072 56.9004 75.02 54.9675 73.7378C50.479 70.7515 48.0669 70.7374 45.9547 69.4423C45.465 69.1301 44.8835 68.7317 44.4337 68.4394C44.1028 68.2103 43.7821 68.4414 44.0141 69.0067C44.1119 69.2223 46.3484 74.651 51.3903 77.8956C55.6096 80.613 57.896 80.2601 58.448 80.3227C59.045 80.4057 58.5643 80.0226 58.227 79.8306H58.2273Z" fill="#8C734A"/>
<path d="M64.5681 84.8404C63.2246 84.8482 61.8216 84.7703 60.3489 84.7141C56.5558 84.5905 54.0831 84.2094 53.1061 84.0408C51.9569 83.8393 52.2272 83.6986 53.0906 83.7658C53.615 83.8145 57.4889 84.1143 60.3021 84.1563C61.478 84.1768 61.5805 84.1889 63.3086 84.1595C62.7644 83.649 59.9556 81.9227 57.8078 81.7978C52.879 81.0464 48.4376 82.9866 46.7591 83.9283C45.9291 84.3999 46.417 84.5109 46.7425 84.5265C52.7269 84.6968 53.6225 87.0158 60.658 86.6146C62.2662 86.5206 65.9024 85.8086 66.4185 85.167C66.5557 84.9952 65.2228 84.8061 64.5681 84.8404Z" fill="#8C734A"/>
<path d="M80.744 83.7512C78.3319 81.5161 77.3319 79.481 71.9091 78.4113C67.4892 77.529 65.5667 78.9299 58.7237 77.8553C55.5839 77.365 56.5435 78.8051 57.441 79.9858C57.7392 80.3873 61.6273 82.9905 62.6213 83.4342C64.6012 84.3214 67.2122 85.2853 70.9014 85.5523C71.0957 85.5534 71.2931 85.5675 71.5107 85.5675C68.9137 86.5438 67.1405 87.6153 66.4005 88.1869C66.2607 88.2835 66.1253 88.399 66.0053 88.5118C65.9169 88.6083 65.699 88.8038 65.5762 89.0883C65.2868 89.7221 65.1453 90.8169 66.8391 90.9172C67.1841 90.942 72.3663 91.5589 73.0847 91.6667C74.2104 91.82 75.2389 91.912 76.1376 90.2923C78.2044 86.5828 81.2213 84.7131 81.2213 84.1087C81.2213 84.1087 80.9912 83.9836 80.744 83.7509V83.7512Z" fill="#FFE898"/>
<path d="M78.2 82.5518C77.9452 82.4405 76.5295 80.4354 71.5109 79.4949C67.0337 78.656 63.0262 79.8898 58.5777 78.797C58.3558 78.7437 58.0039 78.8091 58.3303 79.2559C58.5966 79.6104 58.9448 80.001 59.3147 80.2896C60.4953 81.2054 64.0208 83.9977 70.9854 84.4943C72.2357 84.5834 74.2793 84.5332 76.5855 84.0415C77.4314 83.8573 77.2931 83.6509 76.6619 83.5979C76.0864 83.5405 70.4877 83.2398 64.2217 81.2054C63.5435 80.9845 63.5719 80.5072 64.3089 80.7586C65.4504 81.1491 73.3278 82.9392 77.9219 83.1888C78.2888 83.2125 78.7488 82.9986 78.2 82.5518Z" fill="#8C734A"/>
<path d="M79.2239 85.1723C77.4507 86.4063 76.0046 88.5627 75.2814 89.725C74.5911 90.8249 74.1106 90.7823 73.1556 90.6433C72.4697 90.5482 71.6238 90.4577 71.3701 90.3969C70.3001 90.1501 71.6542 89.394 71.829 89.2629C73.3743 88.1387 74.7994 87.2388 75.6031 86.8185C76.4587 86.3729 76.1195 86.3371 75.6516 86.5153C74.0463 87.1324 71.664 88.5913 71.0078 89.0692C70.3138 89.5831 69.5796 90.0766 68.9565 90.0645C68.4774 90.0576 67.1804 89.9126 66.8365 89.8942C66.0515 89.8457 66.487 89.4626 66.9318 89.102C68.1864 88.1387 72.3454 85.396 79.1929 84.7353C79.3794 84.7131 79.529 84.957 79.2239 85.1726V85.1723Z" fill="#8C734A"/>
<path d="M117.774 12.3175C117.268 11.5196 116.433 10.7459 115.478 10.0795C112.447 7.95505 107.516 6.44806 104.983 3.85695C104.461 3.31359 104.204 4.8177 104.44 5.89519C104.888 8.02222 107.189 15.1602 118.162 19.5397C114.709 18.8069 113.852 19.9112 113.635 20.1237C113.467 20.2814 113.216 21.0109 113.854 21.2767C117.821 22.9004 122.497 30.2212 132.71 30.1417C134.705 32.1439 137.354 32.8247 137.756 30.807C138.058 29.2827 137.836 28.336 137.71 27.6439C136.585 20.8953 131.52 17.8511 130.578 15.9022C130.374 15.4597 129.993 15.6909 129.803 15.9584C129.512 16.4081 129.225 19.4304 130.013 22.5946C130.156 23.1616 129.207 19.235 126.88 16.3C124.161 12.8548 120.34 11.116 118.141 8.48919C117.811 8.11417 117.546 8.66099 117.461 9.08414C117.391 9.53094 117.285 10.7456 117.774 12.3172L117.774 12.3175Z" fill="#FFE898"/>
<path d="M119.18 16.0898C119.312 16.3005 117.06 15.3902 115.399 14.3202C111.416 11.7447 109.148 9.27378 109.055 9.17721C108.746 8.829 108.35 8.79297 108.687 9.27378C108.971 9.68915 111.191 12.2099 114.455 14.4684C116.046 15.5695 118.048 16.5239 119.806 17.1365C121.248 19.3497 122.718 20.3692 122.433 20.2646C109.222 15.69 105.452 8.14613 105.182 5.74094C105.147 5.46277 105.226 5.35352 105.286 5.33969C105.362 5.32355 105.483 5.27858 105.81 5.60488C108.494 8.2303 115.029 8.90193 118.379 14.7059C118.567 15.187 119.091 15.9587 119.18 16.0895L119.18 16.0898Z" fill="#8C734A"/>
<path d="M128.343 22.827C127.539 21.2246 126.872 20.2267 126.127 19.2224C124.8 17.4404 123.5 16.1265 122.729 15.4192C122.533 15.2442 122.381 15.1194 122.27 15.0407C121.847 14.7596 121.798 15.0611 122.028 15.292C122.084 15.3471 122.174 15.4373 122.222 15.4829C122.44 15.6858 123.4 16.5883 125.168 18.8549C126.121 20.0915 126.689 21.1416 127.085 21.8896C127.298 22.3127 127.533 22.9123 126.951 22.5344C124.322 20.8274 123.769 20.376 122.372 18.92C119.227 15.6812 118.3 10.7002 118.399 10.1516C119.099 11.0204 122.616 13.4925 125.054 16.0072C127.545 18.5937 128.965 22.1441 129.185 22.7154C129.6 23.8555 128.751 23.6572 128.343 22.8261V22.827Z" fill="#8C734A"/>
<path d="M130.643 27.1804C125.418 23.8197 120.691 22.215 119.67 21.8968C118.924 21.6656 118.963 21.8858 119.139 21.9873C119.245 22.0501 119.346 22.1046 119.45 22.1435C125.651 24.8565 129.853 27.5145 131.729 28.7938C132.878 29.5779 131.362 29.366 130.897 29.2893C128.256 28.8673 125.839 28.0962 123.953 27.0729C119.575 24.702 118.548 22.9653 116.587 21.8186C116.122 21.5454 115.547 21.2335 115.104 21.0003C114.791 20.8175 114.867 20.4659 115.463 20.429C115.689 20.4177 121.403 20.0773 126.228 22.7915C130.261 25.058 130.903 26.7336 131.171 27.1476C131.46 27.6053 130.934 27.3652 130.643 27.1804H130.643Z" fill="#8C734A"/>
<path d="M136.156 30.9613C135.839 29.5537 135.458 28.7947 134.878 27.4033C133.756 24.6606 132.744 22.9645 132.323 22.3053C131.839 21.5261 131.786 21.7743 132.092 22.3788C132.268 22.7532 133.573 25.4945 134.37 27.5515C134.826 28.7541 135.022 29.3917 135.457 30.6721C135.706 31.6361 133.935 30.4911 133.262 29.3713C130.423 24.417 130.487 21.2318 130.347 18.0599C130.309 17.29 130.616 17.3744 130.74 17.6088C130.874 17.8336 134.37 21.5261 135.087 23.1643C135.967 25.1515 136.84 26.824 136.952 29.5681C136.989 30.349 136.806 30.9616 136.156 30.9616L136.156 30.9613Z" fill="#8C734A"/>
<path d="M87.2735 5.45426L84.93 17.0204C84.93 17.0204 84.4946 19.4055 85.9716 21.3356C87.3622 22.955 87.3232 22.7426 88.6966 24.0671C89.2623 24.6326 90.1725 25.5179 90.5195 26.1085C90.7198 26.4755 91.6793 27.7516 91.6793 27.7516C91.6793 27.7516 92.9282 27.1707 93.5206 26.9675C94.452 26.6519 95.3699 26.5348 96.1007 26.3348C98.9672 25.6306 101.626 25.0823 102.442 21.4215C102.863 19.513 104.152 14.4899 104.906 11.5488C105.228 10.318 105.774 9.99628 105.774 9.99628C105.774 9.99628 102.913 7.26334 96.8596 5.76212C91.283 4.39089 87.2732 5.45455 87.2732 5.45455L87.2735 5.45426Z" fill="#FEFEFE"/>
<path d="M88.9641 5.96221L86.6189 16.8421C86.6189 16.8421 85.1818 19.3579 86.8614 20.7309C88.533 22.1038 89.4897 23.2661 90.2437 24.2793C91.6527 26.1553 91.9125 26.888 91.9125 26.888C91.9125 26.888 93.1082 26.1976 95.2172 25.6586C97.5516 25.0651 100.073 24.8218 100.908 21.493C101.489 19.1847 103.573 11.077 103.835 9.93204C103.875 9.80435 103.835 9.76803 103.761 9.73372C103.298 9.47314 101.5 8.35472 96.9075 7.16769C91.9963 5.91061 88.9639 5.96221 88.9639 5.96221H88.9641Z" fill="#DDDDDE"/>
<path d="M81.6784 1.29683C87.4453 1.37985 91.9969 3.08401 91.9969 3.08401L91.509 3.88766V16.1252C91.509 18.2885 90.7174 19.4583 89.3753 20.4715C88.2958 21.598 83.3177 23.1174 81.7847 24.7745C81.4701 25.1057 80.9417 24.119 80.8857 24.0487C80.7562 23.9014 79.26 22.7945 78.5772 22.3728C77.8062 21.8871 77.2273 21.4905 76.5775 21.142C75.8823 20.7782 75.3266 20.219 74.4899 19.5116C73.4515 18.6275 72.5089 18.0403 72.2368 17.1249C71.9426 16.1912 71.882 14.8226 71.882 14.8226L71.8726 2.81045C71.8726 2.81045 75.9646 1.22044 81.6781 1.29712L81.6784 1.29683Z" fill="#FEFEFE"/>
<path d="M72.9515 3.65362V14.8399C72.9515 14.8399 73.085 17.7965 74.9234 19.3413C76.4865 20.6765 76.8829 20.2813 78.4879 21.2264C80.6199 22.4697 81.7663 23.9954 81.7663 24.002C81.7663 24.0536 82.5427 23.0476 84.6653 22.0007C87.3202 20.6767 90.1816 19.9674 90.1816 16.3737V3.60059C90.1816 3.52535 90.1334 3.4752 90.0429 3.45358C89.4301 3.32069 86.83 2.62744 81.7394 2.62744C76.8591 2.62744 73.7911 3.27976 73.0976 3.45358C72.9432 3.49134 72.9512 3.65362 72.9512 3.65362H72.9515Z" fill="#D42E12"/>
<path d="M71.8733 2.80552C71.8733 2.80552 75.7723 0.820312 81.6944 0.820312C87.4315 0.820312 91.5807 2.94157 91.5807 2.94157C91.5807 2.94157 86.8514 1.79663 81.7533 1.79663C76.4235 1.79663 71.873 2.8058 71.873 2.8058L71.8733 2.80552ZM91.9977 3.0929L91.9963 15.9017C91.9963 22.0978 86.3445 21.465 81.7676 24.8091C84.1531 21.5651 90.9263 21.5855 90.9263 16.6313V3.89425C90.9263 3.07273 91.998 3.0929 91.998 3.0929H91.9977ZM77.3925 22.0865C78.5449 22.6503 80.5544 23.9264 81.7676 24.8091C80.976 23.7316 79.0788 22.2681 77.8345 21.5607L77.3928 22.0865H77.3925ZM105.774 9.99456L102.955 21.2855C101.539 27.3299 97.0286 25.8756 91.6601 27.7671C94.31 25.5476 100.613 26.5893 101.741 21.7619C101.991 20.7029 104.477 10.7181 104.477 10.7181C104.727 9.5201 105.774 9.99456 105.774 9.99456H105.774ZM86.7423 22.721C87.9742 23.686 90.1237 26.1336 91.6599 27.7671C90.9136 26.163 89.2027 23.7189 87.4966 22.3379L86.7423 22.721Z" fill="#8C734A"/>
<path d="M99.4432 6.03137C104.04 7.45419 105.205 9.54086 105.205 9.54086C105.205 9.54086 102.853 7.86323 98.5362 6.63728C96.4102 6.03137 92.5566 5.47821 92.5566 5.47821C92.5566 5.47821 95.2176 4.72875 99.4432 6.03137Z" fill="#8C734A"/>
<path d="M89.7988 9.70049C88.4038 9.53157 88.1268 8.15257 88.407 8.01968C88.6948 7.8868 89.7305 7.52936 89.7305 6.76549C89.7305 6.02525 88.3823 5.72259 86.1303 5.76467C83.5035 5.82405 82.4819 5.58653 82.4819 4.87426C82.4819 4.31822 83.3014 4.2868 84.3496 4.56035C84.7135 5.80993 86.5689 5.46921 87.2827 4.50846C87.4087 4.33983 87.3915 4.24788 87.2327 4.29977C86.8163 4.44332 86.2362 4.44332 85.7477 4.40123C84.928 4.34963 83.9096 3.95761 83.0402 3.94492C82.2546 3.93397 81.9868 4.28679 82.0261 4.96505C82.0726 5.91745 83.3651 6.17082 84.928 6.17082C87.4133 6.15987 88.9641 6.23914 89.0433 6.83294C89.0929 7.19845 88.4661 7.70721 86.7227 7.70721C84.9747 7.70721 83.5798 6.31437 81.8128 6.31437C80.6171 6.31437 79.4991 6.97822 78.4567 8.03092C77.5344 7.19989 76.0508 6.30774 75.4552 6.38125C74.527 6.48934 74.3295 7.14512 74.5313 7.69482C74.9311 7.40253 75.3832 7.39821 75.6527 7.39821C75.9185 7.41867 76.4225 7.51697 76.7891 7.83088C77.1286 8.12922 77.2931 8.87897 77.3723 9.09919C77.436 9.3174 77.8545 9.8204 78.6444 9.87661C77.9929 10.2078 77.4486 10.2704 76.9943 10.1767C76.6461 10.0937 76.5933 9.89074 75.7985 9.89074C74.996 9.89074 74.5078 10.4404 74.9541 11.0703C75.713 10.6624 75.8921 10.8794 76.3275 11.1838C77.5746 10.8792 78.5872 11.1213 79.5979 11.5632C79.6708 11.5929 79.744 11.4966 79.7316 11.4026C79.374 9.53128 81.8123 9.42953 81.903 8.13815C81.9262 8.03035 82.0256 7.97241 82.0382 8.09434C82.1768 9.51572 81.3539 9.3174 80.9104 9.94233C82.7862 10.328 83.7222 7.88679 86.2557 8.82708C86.5341 9.73277 86.8901 9.76563 88.0425 9.99537C88.2744 10.045 88.3476 10.0156 88.3553 10.1153C88.4208 10.6999 88.0115 10.9763 87.0801 10.8123C86.5511 10.7324 86.2075 11.3274 86.5341 11.9071C87.3831 11.7318 87.9896 11.9146 88.7936 12.0711C88.8559 11.2853 89.4457 10.776 89.9822 10.5857C89.8837 10.2891 89.7985 10.0827 89.7985 9.7002L89.7988 9.70049ZM76.2495 5.60498C76.2495 5.28012 76.5933 5.0867 76.934 4.89559C76.4814 4.67248 76.5761 4.17409 76.8049 3.90889C76.864 3.83539 76.8823 3.79763 76.9492 3.88381C77.1283 4.09482 77.3304 4.28651 77.593 4.34935C78.0132 4.09799 78.8218 4.04466 79.3786 4.37413C79.6544 4.33954 79.8172 4.25682 80.136 3.96626C80.2339 3.86998 80.3103 3.9089 80.3631 4.00517C80.531 4.31793 80.4039 4.82237 79.965 4.99561C80.1438 5.1285 80.3525 5.33921 80.3525 5.65946C80.3525 6.03909 80.2296 6.39826 79.7147 6.54959L79.0023 7.05144C78.8516 7.1996 78.3669 7.45413 78.1969 7.45413C77.9931 7.45413 77.8499 7.39013 77.6604 7.18057C77.4518 6.92604 77.3898 6.79028 77.2265 6.44812C76.7974 6.44351 76.2495 6.01718 76.2495 5.60469V5.60498Z" fill="#FEFEFE"/>
<path d="M89.0777 17.9063C87.7482 17.5645 87.5782 16.4504 87.8348 16.3258C88.1041 16.1979 89.051 15.8635 89.051 15.1437C89.051 14.4456 87.8116 14.1582 85.7464 14.208C83.3291 14.2544 82.3917 14.0236 82.3917 13.3551C82.3917 12.8336 83.1477 12.7993 84.1101 13.0602C84.4416 14.247 86.1506 13.9189 86.7944 13.0115C86.9126 12.8489 86.9095 12.7627 86.7585 12.8117C86.3716 12.9504 85.8455 12.9504 85.39 12.9193C84.6339 12.8619 83.8065 12.5071 83.0042 12.4915C82.2826 12.4817 81.9402 12.7991 81.9689 13.4407C82.02 14.3406 83.2066 14.5857 84.6342 14.5813C86.9126 14.5718 88.3483 14.6439 88.4212 15.2057C88.4648 15.5476 87.8785 16.0353 86.2863 16.0353C84.677 16.0353 83.3934 14.7171 81.7686 14.7171C80.6764 14.7171 79.6549 15.3461 78.6908 16.3333C77.8507 15.5493 76.493 14.7151 75.9351 14.7822C75.0904 14.8823 74.9052 15.4991 75.0904 16.0145C75.4589 15.7459 75.9199 15.6035 76.1621 15.6035C76.4138 15.6176 76.6446 15.636 77.1575 16.0797C77.7112 16.5426 77.7454 17.0793 77.8186 17.2889C77.8917 17.4956 77.966 17.9842 78.6911 18.026C78.0875 18.3451 77.7689 18.4604 77.3427 18.3667C77.0267 18.2949 76.9787 18.0917 76.2508 18.0917C75.5117 18.0917 75.0639 18.6183 75.4884 19.2133C76.1802 18.8276 76.3297 19.0227 76.7359 19.313C77.8791 19.0225 78.7996 19.1602 79.7358 19.5739C79.8102 19.616 79.8693 19.5177 79.8633 19.43C79.5292 17.653 81.7761 17.6622 81.8584 16.4409C81.8788 16.333 81.9692 16.2832 81.9781 16.3988C82.1116 17.742 81.3544 17.5561 80.9503 18.1588C82.6704 18.5117 83.5257 16.1973 85.8509 17.0889C86.1184 17.9464 86.4434 18.1632 87.5151 18.2886C87.7401 18.3165 87.784 18.2104 87.7886 18.3165C87.84 18.8541 87.4634 19.121 86.6113 18.9709C86.1288 18.8838 85.8122 19.4491 86.1184 19.9959C86.8506 19.8693 87.4947 19.9786 88.2255 20.1221C88.2737 19.3819 88.8256 18.9383 89.3297 18.7492C89.166 18.4901 89.0777 18.2713 89.0777 17.9058V17.9063ZM76.9141 14.1112C76.9141 13.8097 76.9781 13.56 77.2967 13.377C76.8834 13.1646 76.9609 12.7008 77.1675 12.4477C77.2364 12.3742 77.2456 12.3427 77.3108 12.4214C77.4727 12.6149 77.661 12.7976 77.8986 12.8619C78.2953 12.6241 79.0249 12.5791 79.5505 12.8867C79.7852 12.8489 79.9486 12.7774 80.2301 12.5071C80.3355 12.4041 80.4012 12.4214 80.4474 12.5166C80.605 12.812 80.4899 13.3021 80.0886 13.4675C80.2488 13.5877 80.431 13.7973 80.431 14.1034C80.431 14.4597 80.21 14.7903 79.7218 14.9405L79.1914 15.4089C79.0562 15.5499 78.5898 16.0027 78.419 16.0027C78.2416 16.0027 78.1096 15.6704 77.966 15.5233L77.5634 14.8439C77.1486 14.7018 76.9147 14.5032 76.9147 14.1115L76.9141 14.1112Z" fill="#FEFEFE"/>
<path d="M95.9517 10.5451L95.735 10.322C95.5467 10.7221 95.3168 12.023 94.7892 13.1645C94.0366 14.8049 93.7539 15.1344 93.7539 15.1344C93.7539 15.1344 94.0774 15.2826 94.4523 15.9951C94.9279 15.6293 95.7522 15.6293 95.7522 15.6293C95.7522 15.6293 95.553 14.3538 95.6262 13.3395C95.7103 12.3355 95.9517 10.5454 95.9517 10.5454V10.5451Z" fill="#FEFEFE"/>
<path d="M93.4284 10.1124C93.5499 9.62002 94.0831 9.30294 94.6104 9.4217C95.1425 9.53412 95.4815 10.0311 95.3664 10.5277C95.2373 11.0244 94.704 11.3351 94.175 11.2178C93.6431 11.1042 93.3044 10.6076 93.4284 10.1124Z" fill="#FEFEFE"/>
<path d="M96.3526 10.6497C96.4758 10.1573 97.0137 9.8512 97.5455 9.96217C98.0774 10.0734 98.4132 10.5744 98.2938 11.0662C98.1629 11.5649 97.6345 11.8819 97.0992 11.7554C96.5627 11.6415 96.2329 11.1509 96.3526 10.65V10.6497Z" fill="#FEFEFE"/>
<path d="M95.2379 8.81796C95.3671 8.31957 95.8932 8.00451 96.4167 8.1201C96.9552 8.23569 97.289 8.74157 97.165 9.22555C97.0485 9.72855 96.5135 10.0329 95.9816 9.92226C95.4483 9.8035 95.1165 9.31001 95.2379 8.81796Z" fill="#FEFEFE"/>
<path d="M95.736 10.2883C95.736 10.2883 95.2539 11.2866 94.4982 12.9296C93.7551 14.5726 93.4546 14.9554 93.4546 14.9554C93.4546 14.9554 93.8682 15.1552 94.1701 15.7551C94.7637 15.4022 95.464 15.3893 95.464 15.3893C95.464 15.3893 95.2708 14.1163 95.3472 13.1103C95.4235 12.0971 95.736 10.2883 95.736 10.2883Z" fill="#2B2A29"/>
<path d="M93.1404 9.87518C93.2667 9.38025 93.7951 9.06951 94.3256 9.18193C94.8571 9.30386 95.2027 9.79274 95.0686 10.2926C94.9461 10.7829 94.4191 11.0982 93.8853 10.9858C93.3531 10.8702 93.0172 10.377 93.1401 9.87518H93.1404Z" fill="#2B2A29"/>
<path d="M96.0623 10.4145C96.1929 9.92102 96.7233 9.61604 97.2552 9.72414C97.7948 9.83973 98.1245 10.3367 98.0034 10.8377C97.8806 11.328 97.3531 11.6358 96.8135 11.5266C96.2802 11.4047 95.9504 10.9143 96.0623 10.4145Z" fill="#2B2A29"/>
<path d="M94.9461 8.57242C95.069 8.08181 95.6072 7.77396 96.1342 7.88839C96.6738 7.9962 96.9993 8.4992 96.8776 8.99442C96.7561 9.48734 96.2229 9.80009 95.691 9.6845C95.1589 9.57208 94.829 9.07831 94.9459 8.57242H94.9461Z" fill="#2B2A29"/>
<path d="M99.7169 15.3548L99.4849 15.1311C99.2955 15.5295 99.0728 16.8229 98.5472 17.977C97.7961 19.6169 97.3979 19.7654 97.3979 19.7654C97.3979 19.7654 97.8722 20.0761 98.2143 20.8028C98.9207 20.4554 99.5081 20.4292 99.5081 20.4292C99.5081 20.4292 99.3107 19.1612 99.3836 18.1583C99.4642 17.1371 99.7166 15.3548 99.7166 15.3548H99.7169Z" fill="#FEFEFE"/>
<path d="M97.183 14.9216C97.3119 14.4218 97.8409 14.1111 98.3817 14.2295C98.8998 14.3408 99.2422 14.8375 99.1222 15.3385C98.9899 15.823 98.4552 16.1381 97.9307 16.0257C97.3989 15.9129 97.0582 15.4163 97.183 14.9214V14.9216Z" fill="#FEFEFE"/>
<path d="M100.118 15.4583C100.237 14.9665 100.779 14.646 101.301 14.7714C101.835 14.8775 102.171 15.3788 102.057 15.8769C101.926 16.3724 101.393 16.6814 100.862 16.5643C100.328 16.4502 99.9996 15.9581 100.118 15.4583H100.118Z" fill="#FEFEFE"/>
<path d="M98.9903 13.6231C99.1212 13.1265 99.6482 12.8126 100.185 12.931C100.715 13.0414 101.053 13.5387 100.927 14.0353C100.797 14.5334 100.275 14.8442 99.7374 14.7306C99.2041 14.6193 98.8695 14.1169 98.9906 13.6231H98.9903Z" fill="#FEFEFE"/>
<path d="M99.4844 15.0889C99.4844 15.0889 99.0147 16.0992 98.2619 17.7296C97.5107 19.3804 97.2119 19.7664 97.2119 19.7664C97.2119 19.7664 97.7191 20.0053 97.9178 20.5677C98.5619 20.1927 99.2254 20.1956 99.2254 20.1956C99.2254 20.1956 99.0265 18.9278 99.1 17.9187C99.1726 16.908 99.484 15.0889 99.484 15.0889H99.4844Z" fill="#2B2A29"/>
<path d="M96.8991 14.6862C97.0251 14.1821 97.5509 13.8759 98.0844 13.9886C98.6192 14.1022 98.9522 14.5989 98.8385 15.1019C98.7079 15.5971 98.1697 15.9015 97.6516 15.7876C97.112 15.6784 96.7777 15.1754 96.8988 14.6862H96.8991Z" fill="#2B2A29"/>
<path d="M99.8269 15.2211C99.9546 14.7213 100.485 14.423 101.018 14.5247C101.549 14.6435 101.878 15.1445 101.759 15.6365C101.644 16.1384 101.104 16.4471 100.566 16.3286C100.032 16.2162 99.7044 15.7195 99.8269 15.2211Z" fill="#2B2A29"/>
<path d="M98.7085 13.3854C98.8388 12.8856 99.3632 12.5797 99.8919 12.6965C100.435 12.8077 100.763 13.3024 100.642 13.7976C100.516 14.2963 99.9835 14.607 99.4533 14.4914C98.9215 14.3752 98.5871 13.882 98.7085 13.3854Z" fill="#2B2A29"/>
<path d="M94.2097 19.8514L93.9887 19.6277C93.7961 20.0292 93.5705 21.3307 93.0432 22.4687C92.2949 24.1132 91.9731 24.4384 91.9731 24.4384C91.9731 24.4384 92.4307 24.7574 92.706 25.2994C93.2921 24.9304 94.0699 24.946 94.0699 24.946C94.0699 24.946 93.8035 23.6595 93.8862 22.6506C93.964 21.6385 94.2097 19.8517 94.2097 19.8517V19.8514Z" fill="#FEFEFE"/>
<path d="M91.6822 19.421C91.8128 18.9243 92.3372 18.615 92.8716 18.715C93.4084 18.8413 93.7379 19.3348 93.615 19.8315C93.4988 20.3313 92.9623 20.636 92.4302 20.5267C91.8966 20.4155 91.564 19.9113 91.682 19.421H91.6822Z" fill="#FEFEFE"/>
<path d="M94.6105 19.9589C94.7471 19.459 95.2758 19.1483 95.8091 19.265C96.3413 19.3806 96.6742 19.8776 96.5405 20.3742C96.4251 20.8692 95.8918 21.1767 95.3663 21.0643C94.8298 20.9507 94.4923 20.4552 94.6105 19.9589Z" fill="#FEFEFE"/>
<path d="M93.4988 18.1185C93.6171 17.6204 94.1472 17.3096 94.6848 17.4284C95.217 17.5359 95.5531 18.0375 95.4239 18.5327C95.3008 19.0354 94.7661 19.3415 94.2431 19.2323C93.7006 19.1121 93.3645 18.6197 93.4988 18.1188V18.1185Z" fill="#FEFEFE"/>
<path d="M93.9938 19.5886C93.9938 19.5886 93.5197 20.5915 92.7637 22.2282C92.0031 23.8729 91.7061 24.2606 91.7061 24.2606C91.7061 24.2606 92.1383 24.5287 92.4244 25.0663C93.0232 24.7383 93.7246 24.693 93.7246 24.693C93.7246 24.693 93.5194 23.4187 93.6052 22.4126C93.6827 21.4035 93.9938 19.5889 93.9938 19.5889V19.5886Z" fill="#2B2A29"/>
<path d="M91.4014 19.1777C91.5228 18.679 92.0501 18.3729 92.5897 18.4839C93.1166 18.6041 93.4513 19.101 93.3316 19.598C93.2085 20.0972 92.6721 20.41 92.1465 20.2863C91.6101 20.1739 91.2774 19.679 91.4014 19.178V19.1777Z" fill="#2B2A29"/>
<path d="M94.329 19.7246C94.4521 19.2259 94.9837 18.9109 95.5142 19.0294C96.0474 19.1418 96.3772 19.6416 96.2624 20.1368C96.135 20.6335 95.6045 20.9425 95.0755 20.8269C94.542 20.7165 94.2079 20.2147 94.329 19.7246Z" fill="#2B2A29"/>
<path d="M93.2092 17.8815C93.3306 17.3848 93.8587 17.0741 94.4035 17.1908C94.9276 17.3064 95.2585 17.7956 95.1423 18.2997C95.0163 18.7918 94.4861 19.1071 93.9537 18.9869C93.4144 18.8806 93.0878 18.3825 93.2095 17.8815H93.2092Z" fill="#2B2A29"/>
<path d="M44.6934 12.3552C45.194 11.5567 46.0201 10.7822 46.9842 10.1172C50.0088 7.98786 54.9439 6.49009 57.466 3.89581C58.0044 3.35533 58.253 4.85656 58.0151 5.94039C57.567 8.07376 55.2686 15.2023 44.2968 19.5898C47.7557 18.8521 48.6061 19.9585 48.8194 20.1646C48.9979 20.3268 49.2407 21.0579 48.6061 21.3167C44.6389 22.9413 39.9576 30.2681 29.7432 30.1788C27.7461 32.1856 25.1026 32.8624 24.6996 30.8487C24.3968 29.3212 24.6282 28.3735 24.7309 27.6831C25.8678 20.9339 30.9375 17.8995 31.8801 15.9483C32.0888 15.5093 32.4714 15.7312 32.6436 15.997C32.9456 16.4498 33.224 19.4719 32.4479 22.6395C32.3047 23.2016 33.2533 19.2831 35.5782 16.3417C38.286 12.8965 42.1085 11.1552 44.3235 8.53612C44.6389 8.15476 44.9205 8.69956 44.9859 9.12934C45.0697 9.57124 45.1694 10.7854 44.6938 12.3549L44.6934 12.3552Z" fill="#FFE898"/>
<path d="M43.2768 16.1297C43.1381 16.3422 45.3919 15.4376 47.0621 14.3601C51.0402 11.7889 53.3062 9.31798 53.3918 9.21392C53.7029 8.87004 54.107 8.84064 53.7652 9.31827C53.4882 9.73393 51.2629 12.2513 48.0046 14.5086C46.418 15.6146 44.3981 16.5653 42.639 17.1792C41.2099 19.3925 39.734 20.4094 40.028 20.3111C53.2362 15.7331 57.0045 8.18659 57.2738 5.78226C57.3082 5.5041 57.2276 5.39485 57.1587 5.38418C57.095 5.36228 56.9738 5.32019 56.6483 5.64189C53.9566 8.2797 47.4165 8.9421 44.0733 14.7415C43.8985 15.2208 43.3545 15.9951 43.2768 16.13V16.1297Z" fill="#8C734A"/>
<path d="M34.114 22.8789C34.918 21.2655 35.5776 20.2656 36.3319 19.2668C37.6522 17.4736 38.9613 16.1741 39.7299 15.4587C39.9214 15.2823 40.0749 15.1603 40.1869 15.0886C40.6025 14.8058 40.6533 15.109 40.4283 15.329C40.3723 15.393 40.2805 15.4791 40.2386 15.5261C40.019 15.7337 39.0707 16.6316 37.2974 18.901C36.335 20.1336 35.769 21.1768 35.3723 21.9357C35.1548 22.3575 34.9246 22.9513 35.5096 22.584C38.1373 20.8704 38.6817 20.4175 40.0956 18.9601C43.217 15.7193 44.1564 10.7417 44.0597 10.1946C43.3553 11.0634 39.8419 13.5343 37.4005 16.0565C34.9123 18.6338 33.4955 22.1882 33.2774 22.7538C32.8437 23.8987 33.7082 23.6973 34.1143 22.8789H34.114Z" fill="#8C734A"/>
<path d="M31.8101 27.2201C37.0371 23.8556 41.7664 22.2595 42.7879 21.9393C43.5285 21.7098 43.4851 21.9332 43.3169 22.0252C43.205 22.0909 43.1082 22.1439 43.0043 22.1875C36.8023 24.8959 32.5908 27.5634 30.7214 28.8444C29.5831 29.6189 31.1058 29.4097 31.5599 29.3347C34.1973 28.9159 36.6158 28.1396 38.49 27.1183C42.8784 24.7457 43.9004 23.0107 45.8723 21.8609C46.3266 21.5859 46.9127 21.2769 47.3436 21.0425C47.6734 20.8676 47.591 20.5081 46.9871 20.4724C46.7569 20.4551 41.0511 20.1239 36.2331 22.8262C32.2022 25.1017 31.5486 26.7779 31.2797 27.1947C30.984 27.6427 31.5239 27.4196 31.8101 27.2195V27.2201Z" fill="#8C734A"/>
<path d="M26.3063 31.0076C26.6125 29.6035 27.0046 28.8379 27.5738 27.4419C28.7061 24.7086 29.7075 23.0048 30.1277 22.3502C30.6188 21.5661 30.6747 21.8189 30.3685 22.4159C30.1882 22.7955 28.8757 25.538 28.0887 27.592C27.6317 28.7946 27.4305 29.4363 26.9939 30.7184C26.7557 31.6772 28.5226 30.5282 29.2009 29.4158C32.0326 24.4584 31.9626 21.277 32.1107 18.097C32.1495 17.3397 31.8475 17.4222 31.7172 17.6461C31.5834 17.8788 28.0889 21.5664 27.3642 23.2063C26.4902 25.1946 25.6085 26.8688 25.5026 29.6049C25.465 30.3939 25.6533 31.0079 26.3066 31.0079L26.3063 31.0076Z" fill="#8C734A"/>
<path d="M89.3422 9.34131C87.877 8.97898 87.7837 7.77811 88.0653 7.64811C88.35 7.51724 89.3948 7.16269 89.3948 6.40084C89.3948 5.65858 88.0449 5.34612 85.7805 5.4055C83.1586 5.45421 82.1385 5.21496 82.1385 4.50557C82.1385 3.94837 82.9611 3.90744 84.0065 4.19195C84.3701 5.4447 86.23 5.10427 86.9361 4.13718C87.0635 3.96682 87.0512 3.87458 86.8914 3.92964C86.4729 4.07319 85.8957 4.07319 85.4043 4.03571C84.5848 3.98585 83.9301 3.64657 83.059 3.6264C82.2803 3.61371 81.6549 3.90744 81.6827 4.5981C81.7324 5.54443 83.0262 5.80184 84.5848 5.79752C87.0716 5.79118 88.6146 5.8742 88.7013 6.46454C88.7576 6.82226 88.1273 7.33449 86.375 7.33449C84.6345 7.33449 83.2318 5.93992 81.4697 5.93992C80.2705 5.93992 79.1557 6.60521 78.1044 7.65647C77.1931 6.82716 75.7278 5.93992 75.1075 6.00852C74.1853 6.12411 73.9907 6.78018 74.1945 7.31892C74.5912 7.03788 75.0983 6.88654 75.359 6.88654C75.6359 6.90009 75.8739 6.91912 76.4419 7.38465C77.045 7.87497 77.0826 8.44167 77.1569 8.66536C77.2378 8.88558 77.5116 9.45719 78.2987 9.50591C77.6503 9.84143 77.1087 9.90254 76.6454 9.80425C76.3096 9.73391 76.2504 9.52003 75.4554 9.52003C74.6563 9.52003 74.1727 10.0726 74.6176 10.701C75.3733 10.2931 75.5522 10.5059 75.9841 10.8146C77.2361 10.5056 78.2315 10.6491 79.2473 11.0832C79.3205 11.1253 79.3899 11.025 79.3796 10.9331C79.0326 9.05594 81.4694 9.06344 81.5641 7.76889C81.5825 7.65647 81.6965 7.59853 81.6965 7.73113C81.838 9.14934 81.0136 8.95102 80.5708 9.57249C82.4447 9.95847 83.3842 7.51724 85.9158 8.45291C86.197 9.36466 86.5521 9.39925 87.6996 9.62553C87.9407 9.6754 88.0119 9.646 88.017 9.75208C88.0762 10.3222 87.6637 10.6079 86.7306 10.4459C86.2071 10.3565 85.8675 10.9627 86.1973 11.5329C87.1692 11.3326 87.6235 11.4234 88.4163 11.5764C88.468 10.786 88.9844 10.4254 89.5225 10.2254C89.431 9.92676 89.3425 9.73334 89.3425 9.34131H89.3422ZM78.5458 5.96327C78.3779 5.90994 78.2783 5.7834 78.1804 5.6583C78.1041 5.56951 77.9936 5.57384 77.9376 5.62889C77.8053 5.74564 77.6735 5.90994 77.524 5.96327C77.5352 5.96327 77.4712 6.04427 77.6313 6.04427H78.4683C78.5696 6.0287 78.5461 5.96327 78.5461 5.96327H78.5458ZM77.0823 4.65431C77.4913 4.61367 77.9063 4.89298 77.6451 5.5257C77.5352 5.42423 77.4103 5.34612 77.4212 5.20401C77.1569 5.19968 77.059 5.04316 77.0823 4.6546V4.65431ZM79.0231 4.71052C79.0231 5.10427 78.9095 5.21467 78.6448 5.21467C78.6517 5.3539 78.5266 5.45393 78.4147 5.54444C78.1971 4.91345 78.6121 4.6497 79.0231 4.71052ZM76.1784 5.30864C76.1784 4.98061 76.2516 4.71801 76.5934 4.52603C76.1365 4.30004 76.2341 3.79819 76.4491 3.54539C76.53 3.46555 76.5427 3.43298 76.6075 3.51282C76.7898 3.72152 76.9944 3.90744 77.253 3.98095C77.6836 3.72671 78.4755 3.67943 79.0444 4.00458C79.3041 3.96682 79.472 3.889 79.7846 3.60189C79.8965 3.49265 79.9494 3.51311 80.001 3.61141C80.1672 3.92704 80.0461 4.45801 79.6 4.63154C79.7834 4.7624 80.0056 4.96562 80.0056 5.29337C80.0056 5.66838 79.7754 5.92176 79.2453 6.07915L78.6606 6.68015C78.5019 6.82745 78.2189 6.97677 78.0357 6.97677C77.8503 6.97677 77.6047 6.84273 77.4365 6.68015L76.8785 6.07915C76.4321 5.92147 76.1784 5.71018 76.1784 5.30893V5.30864Z" fill="#8C734A"/>
<path d="M88.7403 17.5903C87.389 17.2421 87.2974 16.1066 87.5583 15.9893C87.8227 15.8585 88.7762 15.5272 88.7762 14.8058C88.7762 14.103 87.5353 13.8202 85.4622 13.8637C83.0592 13.9199 82.1124 13.681 82.1124 13.0143C82.1124 12.4911 82.8666 12.4597 83.8293 12.7234C84.1685 13.9027 85.8695 13.581 86.523 12.6707C86.6381 12.5127 86.6318 12.4205 86.4823 12.4784C86.106 12.6064 85.5744 12.6064 85.1169 12.5799C84.3609 12.5236 83.7636 12.2034 82.9614 12.1913C82.249 12.174 81.6611 12.4597 81.6953 13.1033C81.7389 14.0012 82.9367 14.2465 84.3612 14.2353C86.6413 14.2292 88.0706 14.3105 88.1418 14.862C88.19 15.2105 87.6085 15.699 86.0113 15.699C84.4031 15.699 83.1172 14.3745 81.5044 14.3745C80.4014 14.3745 79.3704 15.0041 78.414 15.996C77.5788 15.2107 76.2215 14.3734 75.6555 14.442C74.8139 14.5463 74.6351 15.1603 74.8139 15.6786C75.1844 15.4027 75.6477 15.2635 75.892 15.2635C76.1374 15.2788 76.3601 15.3056 76.8842 15.738C77.4376 16.1974 77.4735 16.7376 77.5357 16.9532C77.6132 17.1579 77.6928 17.6465 78.4144 17.6966C77.8188 18.0057 77.4924 18.1198 77.069 18.0276C76.7502 17.9561 76.7146 17.7606 75.9747 17.7606C75.2387 17.7606 74.7895 18.2732 75.2183 18.877C75.906 18.4836 76.0521 18.6833 76.4735 18.9817C77.6101 18.6833 78.5343 18.8272 79.4579 19.2394C79.5294 19.2757 79.5994 19.1768 79.5811 19.099C79.2602 17.3089 81.5047 17.3262 81.5839 16.1003C81.6089 15.9954 81.6959 15.9487 81.7116 16.0625C81.8376 17.4009 81.0894 17.217 80.6755 17.807C82.4005 18.1708 83.263 15.8582 85.5839 16.7486C85.8468 17.6148 86.1642 17.6384 87.2322 17.8601C87.436 17.9059 87.5107 17.8774 87.5138 17.9757C87.579 18.5213 87.1886 18.7819 86.335 18.6317C85.8514 18.5461 85.5339 19.1131 85.8468 19.655C86.7412 19.4723 87.153 19.5533 87.8763 19.6989C87.9323 18.9552 88.4079 18.613 88.9024 18.419C88.8189 18.14 88.7408 17.9555 88.7408 17.5897L88.7403 17.5903ZM78.8167 14.3936C78.6615 14.3405 78.5693 14.2292 78.476 14.103C78.4137 14.0246 78.3064 14.0306 78.2553 14.0825C78.1307 14.1872 78.016 14.3445 77.879 14.3933C77.8899 14.3976 77.8308 14.4731 77.9815 14.4731H78.7467C78.8463 14.4601 78.8167 14.3933 78.8167 14.3933V14.3936ZM77.4732 13.1546C77.8512 13.1206 78.2306 13.3858 77.9878 13.9793C77.8819 13.8828 77.7685 13.815 77.7748 13.681C77.5355 13.6715 77.4482 13.5297 77.4732 13.1543V13.1546ZM79.2599 13.2097C79.2599 13.5893 79.148 13.6934 78.91 13.6862C78.91 13.8202 78.7886 13.9199 78.6953 14.0093C78.4875 13.4031 78.8773 13.1546 79.2599 13.2097ZM76.6443 13.7784C76.6443 13.4769 76.7143 13.2204 77.0237 13.035C76.6069 12.8286 76.6816 12.3524 76.8934 12.1089C76.9586 12.0365 76.974 12.0008 77.0314 12.0838C77.1947 12.2807 77.3879 12.4602 77.627 12.5179C78.0159 12.2853 78.7545 12.2368 79.2711 12.549C79.5134 12.5133 79.666 12.4366 79.9519 12.1651C80.0546 12.0665 80.0917 12.0838 80.1448 12.1746C80.3021 12.4651 80.1901 12.9742 79.784 13.1411C79.9519 13.2567 80.1589 13.4518 80.1589 13.7554C80.1589 14.1162 79.9316 14.3598 79.4574 14.5048L78.9132 15.0782C78.7826 15.2113 78.5137 15.3546 78.3501 15.3546C78.181 15.3546 77.9551 15.2217 77.7984 15.0782L77.2943 14.5048C76.8678 14.3598 76.6439 14.1601 76.6439 13.779L76.6443 13.7784Z" fill="#8C734A"/>
<path d="M79.0244 4.70977C79.0244 5.10323 78.9111 5.21565 78.646 5.21565C78.6523 5.35488 78.5276 5.4549 78.414 5.5457C78.1973 4.91298 78.6118 4.6475 79.0244 4.70977Z" fill="#D42E12"/>
<path d="M77.0841 4.65352C77.4926 4.61287 77.9097 4.89277 77.6467 5.5252C77.5357 5.42373 77.4101 5.34878 77.4161 5.20495C77.1571 5.20005 77.059 5.04237 77.0838 4.65352H77.0841Z" fill="#D42E12"/>
<path d="M78.5449 5.96223C78.379 5.91035 78.2774 5.78236 78.1813 5.65755C78.1049 5.56963 77.9944 5.5728 77.937 5.62786C77.8047 5.7446 77.6727 5.91035 77.5246 5.96223C77.5358 5.96223 77.4718 6.04323 77.6305 6.04323H78.4671C78.5699 6.02911 78.5446 5.96223 78.5446 5.96223H78.5449Z" fill="#D42E12"/>
<path d="M79.2613 13.2107C79.2613 13.5886 79.1477 13.6952 78.9094 13.6837C78.9094 13.8215 78.7893 13.9198 78.6976 14.0085C78.4874 13.4026 78.8781 13.1542 79.2615 13.2104L79.2613 13.2107Z" fill="#D42E12"/>
<path d="M77.4714 13.1556C77.8509 13.1227 78.2309 13.3847 77.9866 13.9803C77.8822 13.8814 77.7687 13.8145 77.7753 13.6802C77.5353 13.6707 77.4461 13.5303 77.4714 13.1556Z" fill="#D42E12"/>
<path d="M78.8166 14.3938C78.6596 14.3407 78.5692 14.2297 78.4759 14.1032C78.4136 14.0248 78.3069 14.0314 78.2541 14.0827C78.131 14.1874 78.0147 14.3453 77.8772 14.3935C77.8898 14.3981 77.8307 14.4733 77.982 14.4733H78.7466C78.8462 14.4592 78.8166 14.3935 78.8166 14.3935V14.3938Z" fill="#D42E12"/>
<path d="M56.933 10.0398L57.7234 10.6616L61.1307 21.9865C61.1307 21.9865 61.5798 23.8861 63.8333 24.8558C65.7698 25.6992 66.0948 25.4553 68.0152 25.8771C69.3232 26.1973 70.0944 26.3518 70.692 26.7046C70.9595 26.8018 71.1337 26.8248 71.6237 27.0814C71.7695 26.7502 72.1398 26.4423 72.4695 25.9223C72.7571 25.4507 73.4414 24.9495 73.9018 24.5056C75.7698 22.6674 79.3389 20.9228 77.8817 16.1027C76.9936 13.4366 75.2577 4.93225 75.2577 4.93225C75.2577 4.93225 71.717 4.15599 65.6889 5.75522C60.1413 7.22531 56.9326 10.0395 56.9326 10.0395L56.933 10.0398Z" fill="#FEFEFE"/>
<path d="M57.3083 9.75158C57.3083 9.75158 59.7624 7.0198 65.1888 5.4442C70.0424 4.03868 74.4858 4.82388 74.4858 4.82388C74.4858 4.82388 69.9991 4.85674 65.7236 6.20318C60.5913 7.82893 57.308 9.75158 57.308 9.75158H57.3083ZM75.2588 4.93342L78.3676 16.3895C79.9801 22.3696 75.1845 22.3869 71.6104 27.09C72.8079 23.6258 78.8233 22.15 77.5265 17.369C77.2447 16.3131 74.4858 6.07836 74.4858 6.07836C74.1388 4.93053 75.2588 4.9337 75.2588 4.9337V4.93342ZM56.9492 10.0511L60.2787 21.0488C62.1068 26.9664 66.0786 24.9766 71.6245 27.09C68.7566 24.7705 63.0769 26.4807 61.4515 21.4985C61.1389 20.4567 58.422 10.7838 58.422 10.7838C58.0551 9.6308 56.9492 10.0511 56.9492 10.0511Z" fill="#8C734A"/>
<path d="M59.085 10.2242C59.1145 10.3398 62.124 21.0853 62.124 21.0853C63.1659 24.5948 66.9983 24.7666 68.6185 25.2336C70.1954 25.6815 71.4908 26.4114 71.4397 26.4287C71.3929 26.4362 71.9477 25.312 73.0447 24.1656C74.508 22.6554 77.6819 20.934 76.7226 17.6401C76.0774 15.4084 73.9793 7.32839 73.5904 5.88885C73.5516 5.72311 73.4408 5.6202 73.2781 5.6202C72.5858 5.60463 70.4133 5.68419 66.1426 6.91821C61.9064 8.15337 59.8706 9.4485 59.2222 9.89212C59.093 9.97514 59.0462 10.1371 59.085 10.2245V10.2242Z" fill="#FFDF09"/>
<path d="M73.1838 16.6472C73.2786 17.2912 72.896 17.7316 72.8012 17.9467C73.1187 19.1057 74.6333 18.9043 75.0888 19.0178C75.2309 19.0432 75.3595 19.1305 75.2757 19.5759C74.9223 20.4758 74.9255 21.3299 74.9769 21.7456C74.9941 21.8591 74.8555 22.0909 74.7731 22.114C73.8509 22.2984 73.3569 22.5014 72.5713 22.8219L72.4186 22.6827C72.2464 22.4702 72.352 22.1093 72.5834 21.9684C72.4967 21.8782 72.5661 21.6873 72.6425 21.6032C73.0658 21.3236 73.4904 21.4844 73.9301 21.4204C74.1388 20.9725 74.321 20.4176 74.0391 19.9849C73.9769 19.8774 73.7516 19.8509 73.6083 19.8604C72.7249 19.8417 71.9206 20.0772 71.0406 20.1804C70.6331 20.2444 69.2677 20.385 68.8216 19.6448C68.5415 19.1795 68.6801 18.4171 68.7699 18.2594C68.7981 18.2266 68.7559 18.2078 68.7217 18.211C68.4789 18.345 68.1368 18.7636 68.1586 19.3585C68.216 20.9131 69.6003 20.9315 69.9005 20.9693C69.9749 20.9785 70.1397 21.0849 70.0696 21.3172C69.7714 22.0687 69.6838 22.7106 69.5707 23.4434C68.6637 23.704 67.6623 23.9957 66.6767 24.29C66.4867 24.1225 66.4525 23.8556 66.7246 23.6728C66.7837 23.6261 66.7246 23.4042 66.8756 23.2791C67.2737 22.9294 68.0154 22.9139 68.4152 22.9513C68.4786 22.9012 68.6594 22.6268 68.6858 22.1442C68.7042 21.9096 68.6138 21.4412 68.5567 21.3942C67.5518 21.1959 67.0033 21.3458 66.0607 20.6773C65.7106 20.4902 65.0794 19.5341 65.4491 18.7596C65.5082 18.5125 65.9545 17.8175 66.8862 17.3725C67.373 17.1381 68.2346 16.8836 68.7553 16.8741C68.1738 16.6729 66.8144 16.8741 65.9686 15.8182C65.7229 15.9355 65.3696 16.0716 64.8612 16.0087C64.3343 15.8981 63.7163 15.6138 63.4476 15.4308C63.3079 15.3247 62.9844 14.9483 62.6078 15.1028C62.5191 15.1454 62.3464 15.242 62.3464 15.242C62.1566 14.3986 61.5579 14.2083 61.5346 14.2112C61.6058 14.0365 61.6681 13.9743 61.8208 13.8817C62.0541 13.7269 62.1007 13.3946 62.5424 13.6428C63.0668 13.9503 63.5332 14.7701 64.3883 14.8779C64.7536 14.9235 65.0759 14.8736 65.3297 14.7906C65.3328 14.7312 65.3856 14.4905 65.2392 14.5268C65.0759 14.581 63.9344 14.2299 63.4476 13.1614C63.1534 12.5091 62.7636 12.1839 62.4244 12.0493C62.0886 11.9153 61.5194 12.1291 61.4353 12.19C61.5008 11.7651 61.1024 11.2454 61.0421 11.1669C61.0128 11.0779 60.7106 11.1154 60.7623 11.0704C61.0045 10.6596 61.7743 10.6737 61.8039 10.6625C62.3139 10.7109 62.7637 10.8796 63.1911 11.32C63.5616 11.6953 63.6268 12.0061 63.9936 12.5491C64.2206 12.8864 64.2702 13.0415 64.5937 13.2112C64.933 13.3758 65.2861 13.3317 65.2861 13.3317C65.2861 13.3317 65.7353 13.0317 66.0295 12.3742L65.7838 12.0726C65.2596 12.3133 65.0246 12.2632 64.8397 11.9415C64.6549 11.6227 64.8041 11.401 64.9066 11.612C64.9548 11.6855 65.0013 11.7184 65.2117 11.6725C65.493 11.612 65.7749 11.3526 65.6566 10.9467C65.5518 10.542 65.1448 10.4826 64.8087 10.5714C64.5317 10.6403 64.4247 10.7761 64.4838 11.0929C64.4958 11.184 64.4247 11.2289 64.3853 11.1949C64.0871 10.8464 64.0094 10.4826 64.1635 10.2405C64.0028 10.1125 63.9425 9.99491 63.9425 9.99491C64.1319 9.74355 64.8615 9.55186 65.0794 9.5314C65.3015 9.50632 65.2737 9.61557 65.1804 9.64065C64.933 9.70147 64.5318 9.89979 64.7904 9.892C65.0438 9.892 65.1133 10.1232 65.2924 9.84012C65.4775 9.55157 65.9827 9.40774 65.6997 9.41235C65.4121 9.42763 65.3515 9.18578 65.0013 9.24488C64.8971 9.26015 64.9333 9.09988 64.9333 9.09988C65.1712 8.99842 65.375 8.81221 65.5022 8.57324C65.6376 8.33716 65.7109 8.62196 65.6425 8.83872L65.8073 8.86236C66.2361 7.65804 67.3015 8.32477 67.8819 7.81744C67.9671 7.73904 68.0467 7.72981 68.0033 7.8627C67.9502 8.03132 67.941 8.22964 68.0013 8.40461C68.051 8.40461 68.1041 8.41067 68.1569 8.41067C69.1787 8.50954 70.3963 9.24805 70.5673 10.7334C70.7108 11.8141 70.9625 12.2623 71.6281 12.8463C70.4134 12.8544 69.7542 12.0375 69.7542 12.0375C70.2037 13.4805 70.8119 13.6211 71.2923 13.9302C70.2659 13.9492 69.4666 13.4525 69.4666 13.4525C69.4666 13.4525 69.7263 14.3971 71.121 14.98C71.6531 15.2065 72.5053 15.1596 72.8707 15.9277L72.9002 15.9151C73.5142 15.779 73.972 15.4639 73.8207 14.7047C73.5486 13.3646 71.2441 12.4399 70.9439 10.9046C70.7475 9.89114 71.2346 9.37891 71.8816 9.2711C72.6609 9.14744 73.0977 9.51439 73.2051 10.1428C73.336 10.8127 73.5145 11.5561 74.21 11.5921C74.4103 11.6109 74.5647 11.7233 74.1896 11.8216C72.6876 12.262 72.3142 11.4811 72.3079 10.3178C72.305 9.99116 72.2366 9.65045 71.745 9.74961C71.4723 9.80265 71.2441 10.2414 71.3451 10.7475C71.6236 12.183 74.2941 13.0181 74.6328 14.7145C74.7978 15.5954 74.028 16.3653 73.1833 16.542C73.1833 16.587 73.1618 16.6216 73.1618 16.6556L73.1833 16.6461L73.1838 16.6472Z" fill="#FEFEFE"/>
<path d="M72.754 16.2308C72.8519 16.8742 72.4699 17.3098 72.3671 17.5254C72.6828 18.6845 74.2115 18.483 74.6656 18.5939C74.7994 18.6222 74.9254 18.7078 74.8416 19.1578C74.4914 20.0557 74.502 20.8977 74.5537 21.3159C74.56 21.4286 74.4309 21.6656 74.3534 21.686C73.4248 21.8769 72.9251 22.0766 72.1415 22.3905L71.9923 22.2502C71.8244 22.0498 71.9208 21.686 72.1616 21.5468C72.0606 21.4485 72.1413 21.2658 72.2222 21.1816C72.6347 20.8942 73.0666 21.0565 73.5009 20.9876C73.7044 20.5477 73.8861 19.9836 73.6079 19.5556C73.5411 19.4573 73.3172 19.4276 73.1835 19.4368C72.3049 19.4163 71.49 19.6524 70.6094 19.7585C70.2038 19.8196 68.8442 19.966 68.3901 19.212C68.1166 18.7588 68.2535 17.9921 68.3422 17.839C68.3669 17.7958 68.3327 17.7701 68.2985 17.7926C68.0543 17.9266 67.7125 18.3452 67.7323 18.9358C67.7946 20.4817 69.1725 20.5082 69.4679 20.5477C69.5474 20.5541 69.7013 20.6602 69.639 20.8942C69.3376 21.6359 69.2549 22.2839 69.1401 23.0149C68.2363 23.2835 67.2303 23.5666 66.2521 23.8681C66.0606 23.6978 66.0173 23.4306 66.308 23.2556C66.3574 23.2008 66.294 22.9789 66.4527 22.8529C66.8537 22.509 67.5859 22.4891 67.9877 22.5231C68.0543 22.473 68.2363 22.1937 68.2629 21.7157C68.2739 21.4831 68.1866 21.013 68.1338 20.9677C67.1278 20.7677 66.5753 20.9222 65.622 20.2491C65.2862 20.0684 64.6533 19.1076 65.0187 18.325C65.0793 18.0921 65.5336 17.3954 66.459 16.9521C66.9504 16.7174 67.8118 16.4554 68.333 16.4462C67.7498 16.2479 66.3841 16.4462 65.5411 15.39C65.2862 15.5151 64.9349 15.6509 64.4404 15.5869C63.9019 15.4699 63.2891 15.1868 63.0268 15.017C62.8801 14.8965 62.5584 14.5123 62.1835 14.6806C62.0963 14.7166 61.916 14.8135 61.916 14.8135C61.7234 13.9796 61.131 13.7862 61.1043 13.7954C61.1806 13.6115 61.2458 13.5458 61.3919 13.4613C61.6287 13.3019 61.6686 12.9736 62.106 13.2209C62.6442 13.5224 63.1103 14.3436 63.9599 14.4581C64.3204 14.5002 64.6393 14.4517 64.9005 14.3733C64.9005 14.3111 64.9533 14.0629 64.8058 14.1032C64.639 14.158 63.5021 13.7968 63.0265 12.7366C62.728 12.0843 62.3483 11.756 62.0044 11.6246C61.664 11.4905 61.0994 11.7104 61.0047 11.7638C61.0684 11.3452 60.6729 10.8192 60.6112 10.7408C60.5925 10.6595 60.2802 10.6984 60.3408 10.6485C60.5784 10.2409 61.3391 10.2536 61.3735 10.2409C61.8913 10.2894 62.3485 10.4551 62.7638 10.8935C63.1307 11.2735 63.201 11.5825 63.5633 12.1244C63.7903 12.4588 63.8399 12.6242 64.1648 12.7804C64.5139 12.9502 64.8632 12.9024 64.8632 12.9024C64.8632 12.9024 65.3049 12.6058 65.5959 11.9483L65.3534 11.6482C64.8396 11.8935 64.6022 11.8358 64.4094 11.5202C64.2303 11.1985 64.3735 10.9768 64.4806 11.1847C64.5322 11.2671 64.5882 11.2905 64.7808 11.2455C65.0673 11.1847 65.3376 10.9296 65.2397 10.5237C65.1278 10.1115 64.7127 10.0602 64.3858 10.1444C64.0985 10.2239 64.0001 10.3551 64.0561 10.6675C64.0721 10.7549 64.0001 10.8128 63.9602 10.7676C63.6628 10.4234 63.5776 10.0602 63.7435 9.8146C63.5776 9.6944 63.5059 9.57247 63.5059 9.57247C63.7079 9.31795 64.4355 9.12885 64.6536 9.1006C64.8792 9.07754 64.8399 9.18506 64.742 9.21187C64.4966 9.26808 64.0985 9.4713 64.3594 9.46784C64.6258 9.46784 64.6881 9.70075 64.8712 9.41365C65.044 9.13548 65.5523 8.98098 65.2742 8.99193C64.9814 8.99827 64.9275 8.77026 64.5836 8.82445C64.4777 8.84175 64.4966 8.67312 64.4966 8.67312C64.736 8.5731 64.9475 8.3889 65.077 8.15282C65.201 7.91559 65.2836 8.19491 65.215 8.41657L65.3813 8.44194C65.8078 7.23589 66.8726 7.90319 67.4559 7.39068C67.5411 7.314 67.616 7.30766 67.5727 7.44343C67.521 7.61379 67.521 7.80605 67.5727 7.97958C67.6238 7.97958 67.6826 7.97958 67.7185 7.98881C68.7578 8.08249 69.9642 8.82734 70.1464 10.3098C70.2756 11.3873 70.5307 11.8361 71.2072 12.4259C69.9834 12.4308 69.3287 11.6153 69.3287 11.6153C69.7842 13.054 70.3844 13.201 70.8591 13.5117C69.8327 13.5227 69.0362 13.024 69.0362 13.024C69.0362 13.024 69.3037 13.9755 70.6926 14.5546C71.2216 14.7832 72.0724 14.7377 72.4409 15.5108L72.4871 15.4952C73.0861 15.3548 73.5416 15.0409 73.3909 14.2848C73.128 12.9324 70.8201 12.0246 70.5213 10.4816C70.3256 9.46784 70.8112 8.95734 71.4486 8.85587C72.2368 8.72616 72.6742 9.09022 72.7862 9.7117C72.9024 10.3865 73.1002 11.1267 73.7802 11.1674C73.9868 11.1847 74.1407 11.2936 73.7675 11.4032C72.2561 11.8361 71.8823 11.0581 71.8749 9.89128C71.8749 9.57247 71.8123 9.23233 71.3135 9.32746C71.0382 9.3805 70.8203 9.82095 70.9153 10.3222C71.2075 11.7534 73.8642 12.6061 74.2015 14.2895C74.374 15.1611 73.6042 15.9406 72.7569 16.1187C72.7549 16.1608 72.7474 16.1954 72.7302 16.2311H72.7549L72.754 16.2308Z" fill="#8C734A"/>
</svg>