<?xml version="1.0" encoding="utf-8"?>
<!-- Generator: Adobe Illustrator 17.1.0, SVG Export Plug-In . SVG Version: 6.00 Build 0)  -->
<!DOCTYPE svg PUBLIC "-//W3C//DTD SVG 1.1//EN" "http://www.w3.org/Graphics/SVG/1.1/DTD/svg11.dtd">
<svg version="1.1" id="Layer_1" xmlns="http://www.w3.org/2000/svg" xmlns:xlink="http://www.w3.org/1999/xlink" x="0px" y="0px"
	 viewBox="-588 2109.6 768.4 768.4" enable-background="new -588 2109.6 768.4 768.4" xml:space="preserve">
<circle fill="#FFFFFF" cx="-203.7" cy="2494" r="354.4"/>
<path fill="#804AA1" d="M-203.7,2109.6c-212.2,0-384.2,172-384.2,384.2S-416,2878-203.7,2878s384.2-171.8,384.2-384
	C180.5,2281.8,8.5,2109.6-203.7,2109.6z M-190.5,2284.8c105.3,3.6,196,99.9,194.6,203.9c-0.2,10.2,3.6,25.3-11.7,25.1
	c-14.5-0.2-10.8-15.7-12.1-25.9c-14-110.4-64.6-162.6-174.1-179.4c-9.1-1.3-22.8,0.6-22.3-11.5
	C-215.1,2279.3-198.7,2285.9-190.5,2284.8z M-58.9,2492.7c-16.6,2.5-13.4-12.6-15.1-22.5c-11.1-67.2-34.7-91.8-102.3-106.9
	c-10-2.3-25.5-0.8-22.8-16c2.5-14.5,16.4-9.6,27-8.3c67.6,8.1,122.9,66.8,122.3,131.2C-51,2477.8-46.7,2490.8-58.9,2492.7z
	 M-112.2,2476.6c-7.2,0.9-12.1-5.3-12.8-12.8c-2.8-27.8-17.4-44-45.1-48.5c-8.3-1.3-16.4-4-12.6-15.3c2.6-7.6,9.4-8.3,16.6-8.5
	c30-0.8,65.1,35.1,64.6,66.3C-101.2,2466.4-102.2,2475.3-112.2,2476.6z M5.2,2668.1c-11.5,32.7-51.5,65.5-85.7,65.1
	c-4.7-1.3-14.3-2.8-22.8-6.4c-149.9-64.6-258.8-170.3-320.6-322.1c-20.8-51,0.9-93.8,53.2-111.6c9.4-3.2,18.5-3.4,27.8,0
	c22.3,8.1,78.7,85.9,80,109.1c0.9,17.7-11.1,27.6-23.2,35.7c-22.7,15.5-22.8,34.9-13.2,56.8c21.9,49.3,59.5,83.3,108,105.2
	c17.6,7.9,34.4,7.2,46.4-11c21.3-32.5,47.6-30.8,76.3-10.8c14.3,10,29.1,20,42.7,31C-7.2,2624.1,16.4,2636.5,5.2,2668.1z"/>
</svg>
