<svg xmlns="http://www.w3.org/2000/svg" width="39.361" height="39.361" viewBox="0 0 39.361 39.361">
  <path id="video-off-outline" d="M4.9,1.86,2,4.76l5.614,5.614h-1.5A2.057,2.057,0,0,0,4.057,12.43V33a2.057,2.057,0,0,0,2.057,2.057H30.791a2.118,2.118,0,0,0,1.131-.37l6.54,6.54,2.9-2.9L23.141,20.1,4.9,1.86M8.17,30.939V14.487h3.558L28.179,30.939H8.17M28.735,14.487v5.367L41.074,32.193V11.4l-8.226,8.226v-7.2a2.057,2.057,0,0,0-2.057-2.057H19.254l4.113,4.113Z" transform="translate(-2 -1.859)" fill="#9e9fa2"/>
</svg>
