<?xml version="1.0" encoding="UTF-8" standalone="no"?>
<!-- Generator: Adobe Illustrator 16.0.0, SVG Export Plug-In . SVG Version: 6.00 Build 0)  -->

<svg
   xmlns:dc="http://purl.org/dc/elements/1.1/"
   xmlns:cc="http://creativecommons.org/ns#"
   xmlns:rdf="http://www.w3.org/1999/02/22-rdf-syntax-ns#"
   xmlns:svg="http://www.w3.org/2000/svg"
   xmlns="http://www.w3.org/2000/svg"
   xmlns:sodipodi="http://sodipodi.sourceforge.net/DTD/sodipodi-0.dtd"
   xmlns:inkscape="http://www.inkscape.org/namespaces/inkscape"
   version="1.1"
   id="Capa_1"
   x="0px"
   y="0px"
   width="28.703884"
   height="22"
   viewBox="0 0 28.703885 22.000001"
   xml:space="preserve"
   inkscape:version="0.48.4 r9939"
   sodipodi:docname="icon-ok.svg"><metadata
   id="metadata41"><rdf:RDF><cc:Work
       rdf:about=""><dc:format>image/svg+xml</dc:format><dc:type
         rdf:resource="http://purl.org/dc/dcmitype/StillImage" /><dc:title></dc:title></cc:Work></rdf:RDF></metadata><defs
   id="defs39" /><sodipodi:namedview
   pagecolor="#ffffff"
   bordercolor="#666666"
   borderopacity="1"
   objecttolerance="10"
   gridtolerance="10"
   guidetolerance="10"
   inkscape:pageopacity="0"
   inkscape:pageshadow="2"
   inkscape:window-width="1920"
   inkscape:window-height="1017"
   id="namedview37"
   showgrid="false"
   fit-margin-top="0"
   fit-margin-left="0"
   fit-margin-right="0"
   fit-margin-bottom="0"
   inkscape:zoom="4.2663486"
   inkscape:cx="20.980141"
   inkscape:cy="-8.693166"
   inkscape:window-x="-8"
   inkscape:window-y="-8"
   inkscape:window-maximized="1"
   inkscape:current-layer="Capa_1" />
<g
   id="g3"
   transform="matrix(0.0648627,0,0,0.0648627,0,-3.3519746)"
   style="fill:#ffffff;fill-opacity:1">
	<path
   d="M 434.539,98.499 395.711,59.671 c -5.324,-5.328 -11.799,-7.993 -19.41,-7.993 -7.618,0 -14.093,2.665 -19.417,7.993 L 169.59,247.248 85.651,163.023 c -5.33,-5.33 -11.801,-7.992 -19.412,-7.992 -7.616,0 -14.087,2.662 -19.417,7.992 L 7.994,201.852 C 2.664,207.181 0,213.654 0,221.269 c 0,7.609 2.664,14.088 7.994,19.416 l 103.351,103.349 38.831,38.828 c 5.327,5.332 11.8,7.994 19.414,7.994 7.611,0 14.084,-2.669 19.414,-7.994 l 38.83,-38.828 206.705,-206.704 c 5.325,-5.33 7.994,-11.802 7.994,-19.417 0.004,-7.611 -2.669,-14.084 -7.994,-19.414 z"
   id="path5"
   inkscape:connector-curvature="0"
   style="fill:#ffffff;fill-opacity:1" />
</g>
<g
   id="g7"
   transform="translate(-387.2527,-377.14302)">
</g>
<g
   id="g9"
   transform="translate(-387.2527,-377.14302)">
</g>
<g
   id="g11"
   transform="translate(-387.2527,-377.14302)">
</g>
<g
   id="g13"
   transform="translate(-387.2527,-377.14302)">
</g>
<g
   id="g15"
   transform="translate(-387.2527,-377.14302)">
</g>
<g
   id="g17"
   transform="translate(-387.2527,-377.14302)">
</g>
<g
   id="g19"
   transform="translate(-387.2527,-377.14302)">
</g>
<g
   id="g21"
   transform="translate(-387.2527,-377.14302)">
</g>
<g
   id="g23"
   transform="translate(-387.2527,-377.14302)">
</g>
<g
   id="g25"
   transform="translate(-387.2527,-377.14302)">
</g>
<g
   id="g27"
   transform="translate(-387.2527,-377.14302)">
</g>
<g
   id="g29"
   transform="translate(-387.2527,-377.14302)">
</g>
<g
   id="g31"
   transform="translate(-387.2527,-377.14302)">
</g>
<g
   id="g33"
   transform="translate(-387.2527,-377.14302)">
</g>
<g
   id="g35"
   transform="translate(-387.2527,-377.14302)">
</g>
</svg>